<?xml version="1.0" encoding="UTF-8"?>
<svg xmlns="http://www.w3.org/2000/svg" xmlns:xlink="http://www.w3.org/1999/xlink" width="32px" height="32px" viewBox="0 0 32 32" version="1.1">
<g id="surface1">
<path style=" stroke:none;fill-rule:evenodd;fill:rgb(97.647059%,97.647059%,97.647059%);fill-opacity:1;" d="M 3.558594 6.976562 C 3.339844 7.066406 3.359375 6.195312 3.359375 16.066406 L 3.359375 24.917969 L 3.453125 25.023438 C 3.695312 25.292969 3.800781 25.238281 5.039062 24.175781 C 5.734375 23.582031 6.898438 22.632812 6.917969 22.644531 C 6.933594 22.652344 6.945312 23.144531 6.945312 23.742188 C 6.945312 24.921875 6.953125 24.984375 7.117188 25.085938 C 7.367188 25.242188 7.273438 25.304688 9.105469 23.777344 C 9.929688 23.085938 10.929688 22.25 11.324219 21.925781 C 11.71875 21.597656 12.152344 21.234375 12.289062 21.121094 C 12.609375 20.847656 13.453125 20.144531 14.8125 19.015625 C 14.890625 18.949219 15.160156 18.726562 15.40625 18.515625 C 15.652344 18.304688 15.886719 18.113281 15.925781 18.089844 C 15.996094 18.042969 16.054688 18.089844 17.425781 19.238281 C 18.214844 19.894531 18.902344 20.46875 18.953125 20.511719 C 19.007812 20.554688 19.5 20.960938 20.046875 21.417969 C 23.816406 24.5625 24.464844 25.101562 24.542969 25.128906 C 24.679688 25.179688 24.851562 25.132812 24.945312 25.011719 L 25.023438 24.90625 L 25.023438 23.765625 C 25.023438 23.136719 25.035156 22.625 25.050781 22.625 C 25.066406 22.625 25.363281 22.863281 25.714844 23.15625 C 28.285156 25.308594 28.101562 25.164062 28.28125 25.144531 C 28.449219 25.125 28.5625 25.027344 28.609375 24.867188 C 28.664062 24.667969 28.652344 7.320312 28.597656 7.1875 C 28.503906 6.96875 28.246094 6.875 28.0625 6.996094 C 27.984375 7.050781 27.523438 7.429688 27.074219 7.808594 C 26 8.710938 25.078125 9.472656 25.050781 9.472656 C 25.035156 9.472656 25.023438 8.957031 25.023438 8.332031 L 25.023438 7.191406 L 24.945312 7.085938 C 24.859375 6.972656 24.707031 6.921875 24.566406 6.957031 C 24.523438 6.964844 24.160156 7.25 23.757812 7.585938 C 23.355469 7.921875 22.742188 8.429688 22.398438 8.714844 C 21.640625 9.34375 21.632812 9.351562 21.585938 9.394531 C 21.566406 9.410156 20.996094 9.890625 20.316406 10.453125 C 19.636719 11.019531 18.945312 11.597656 18.78125 11.734375 C 18.617188 11.875 17.921875 12.453125 17.238281 13.023438 L 15.996094 14.054688 L 15.894531 13.980469 C 15.835938 13.941406 15.621094 13.761719 15.40625 13.582031 C 14.730469 13.015625 12.121094 10.835938 12.019531 10.753906 C 11.875 10.640625 10.066406 9.128906 9.675781 8.800781 C 9.5 8.652344 9.285156 8.46875 9.199219 8.398438 C 9.113281 8.328125 8.6875 7.972656 8.246094 7.609375 C 7.382812 6.886719 7.359375 6.875 7.132812 6.996094 C 6.953125 7.085938 6.945312 7.152344 6.945312 8.347656 C 6.945312 8.945312 6.933594 9.445312 6.917969 9.453125 C 6.898438 9.464844 5.976562 8.710938 4.320312 7.320312 C 3.863281 6.933594 3.769531 6.894531 3.558594 6.976562 M 24.289062 9.128906 L 24.289062 10.128906 L 23.863281 10.484375 C 23.628906 10.679688 22.914062 11.277344 22.273438 11.8125 C 20.761719 13.070312 18.914062 14.613281 18.828125 14.683594 C 18.578125 14.902344 17.789062 15.550781 17.777344 15.550781 C 17.769531 15.550781 17.609375 15.417969 17.414062 15.257812 C 17.222656 15.09375 16.960938 14.875 16.835938 14.769531 C 16.710938 14.667969 16.609375 14.566406 16.617188 14.546875 C 16.628906 14.515625 16.839844 14.335938 17.960938 13.398438 C 18.136719 13.253906 18.308594 13.109375 18.347656 13.078125 C 18.386719 13.042969 18.78125 12.714844 19.226562 12.339844 C 19.675781 11.96875 20.246094 11.492188 20.496094 11.28125 C 20.746094 11.070312 21.109375 10.765625 21.300781 10.609375 C 21.492188 10.449219 21.75 10.234375 21.875 10.128906 C 22 10.023438 22.136719 9.90625 22.179688 9.871094 C 22.222656 9.835938 22.601562 9.519531 23.019531 9.167969 C 23.441406 8.816406 23.828125 8.492188 23.882812 8.449219 C 23.9375 8.40625 24.046875 8.316406 24.125 8.25 C 24.203125 8.183594 24.269531 8.128906 24.277344 8.128906 C 24.28125 8.128906 24.289062 8.578125 24.289062 9.128906 M 5.238281 9.058594 C 5.832031 9.554688 6.371094 10.003906 6.433594 10.058594 C 6.496094 10.113281 6.636719 10.230469 6.746094 10.320312 L 6.945312 10.480469 L 6.945312 21.617188 L 6.746094 21.777344 C 6.640625 21.863281 6.535156 21.949219 6.515625 21.96875 C 6.332031 22.140625 4.148438 23.9375 4.125 23.9375 C 4.105469 23.9375 4.097656 21.050781 4.097656 16.046875 C 4.097656 11.273438 4.109375 8.160156 4.125 8.160156 C 4.140625 8.160156 4.640625 8.566406 5.238281 9.058594 M 8.519531 8.808594 C 8.941406 9.164062 9.332031 9.492188 9.386719 9.535156 C 9.441406 9.578125 9.882812 9.945312 10.367188 10.351562 C 10.851562 10.753906 11.808594 11.554688 12.492188 12.125 C 13.179688 12.695312 13.769531 13.1875 13.804688 13.21875 C 13.84375 13.25 14.410156 13.726562 15.070312 14.273438 C 15.730469 14.824219 16.324219 15.316406 16.386719 15.371094 C 16.449219 15.425781 16.535156 15.5 16.578125 15.535156 C 16.96875 15.855469 17.152344 16.019531 17.152344 16.050781 C 17.152344 16.070312 17.007812 16.207031 16.828125 16.355469 C 16.648438 16.503906 16.488281 16.640625 16.46875 16.65625 C 16.449219 16.675781 15.878906 17.152344 15.199219 17.714844 C 14.523438 18.28125 13.832031 18.855469 13.664062 18.996094 C 13.496094 19.136719 13.007812 19.546875 12.574219 19.902344 C 12.144531 20.261719 11.742188 20.597656 11.679688 20.652344 C 11.613281 20.707031 11.527344 20.78125 11.484375 20.816406 C 9.664062 22.332031 9.101562 22.800781 9.089844 22.816406 C 8.949219 22.980469 7.730469 23.9375 7.710938 23.898438 C 7.679688 23.851562 7.667969 8.292969 7.699219 8.210938 C 7.726562 8.136719 7.679688 8.101562 8.519531 8.808594 M 27.871094 16.046875 C 27.871094 20.875 27.859375 23.9375 27.84375 23.9375 C 27.8125 23.9375 27.722656 23.863281 26.03125 22.445312 C 25.21875 21.769531 23.070312 19.972656 22.863281 19.804688 C 22.828125 19.773438 22.675781 19.648438 22.527344 19.519531 C 22.378906 19.394531 22.226562 19.265625 22.191406 19.238281 C 22.15625 19.207031 21.785156 18.894531 21.363281 18.542969 C 20.945312 18.191406 20.546875 17.859375 20.480469 17.808594 C 20.375 17.722656 19.257812 16.785156 18.640625 16.269531 C 18.371094 16.039062 18.375 16.054688 18.625 15.84375 C 18.738281 15.746094 18.902344 15.609375 18.992188 15.535156 C 19.230469 15.332031 21.097656 13.773438 21.917969 13.089844 C 22.308594 12.765625 22.792969 12.359375 22.988281 12.195312 C 23.3125 11.917969 24.105469 11.257812 25.839844 9.8125 C 26.191406 9.519531 26.621094 9.160156 26.796875 9.015625 C 26.96875 8.871094 27.128906 8.738281 27.148438 8.71875 C 27.351562 8.535156 27.816406 8.160156 27.839844 8.160156 C 27.859375 8.160156 27.871094 10.867188 27.871094 16.046875 M 18.375 17.03125 C 18.878906 17.457031 19.582031 18.042969 22.175781 20.203125 C 22.855469 20.765625 23.507812 21.316406 23.632812 21.421875 C 23.835938 21.59375 23.953125 21.695312 24.21875 21.910156 L 24.289062 21.96875 L 24.28125 22.96875 L 24.273438 23.972656 L 24.109375 23.832031 C 24.019531 23.757812 23.800781 23.578125 23.628906 23.433594 C 22.980469 22.894531 22.253906 22.289062 22.21875 22.257812 C 22.183594 22.222656 22.0625 22.121094 20.925781 21.175781 C 19.910156 20.328125 18.179688 18.882812 17.902344 18.652344 C 17.761719 18.53125 17.417969 18.242188 17.136719 18.007812 C 16.855469 17.773438 16.625 17.5625 16.625 17.539062 C 16.625 17.476562 17.765625 16.542969 17.8125 16.570312 C 17.832031 16.582031 18.085938 16.789062 18.375 17.03125 "/>
<path style=" stroke:none;fill-rule:evenodd;fill:rgb(1.568628%,1.568628%,1.568628%);fill-opacity:1;" d="M 0 16 L 0 32 L 32 32 L 32 0 L 0 0 L 0 16 M 3.9375 6.957031 C 4 6.996094 4.199219 7.164062 4.542969 7.457031 C 4.679688 7.570312 5.148438 7.960938 5.585938 8.324219 C 6.023438 8.6875 6.414062 9.011719 6.449219 9.046875 C 6.484375 9.078125 6.585938 9.160156 6.671875 9.230469 C 6.761719 9.300781 6.835938 9.371094 6.84375 9.382812 C 6.898438 9.507812 6.910156 9.269531 6.910156 8.285156 C 6.910156 7.058594 6.910156 7.058594 7.105469 6.957031 C 7.355469 6.828125 7.410156 6.855469 8.195312 7.507812 C 8.972656 8.152344 9.089844 8.253906 9.484375 8.585938 C 9.628906 8.707031 9.773438 8.832031 9.808594 8.859375 C 9.84375 8.886719 10.039062 9.050781 10.242188 9.21875 C 10.441406 9.386719 10.789062 9.671875 11.007812 9.855469 C 11.226562 10.039062 11.414062 10.195312 11.425781 10.207031 C 11.433594 10.214844 11.511719 10.28125 11.601562 10.351562 C 11.6875 10.421875 11.777344 10.492188 11.792969 10.511719 C 11.8125 10.527344 12.28125 10.917969 12.832031 11.375 C 13.382812 11.832031 14.03125 12.375 14.269531 12.574219 C 14.511719 12.777344 14.777344 13 14.863281 13.070312 C 14.949219 13.140625 15.128906 13.292969 15.265625 13.40625 C 15.714844 13.789062 15.9375 13.96875 15.976562 13.976562 C 16.019531 13.984375 16.074219 13.945312 16.492188 13.589844 C 16.636719 13.46875 16.78125 13.347656 16.816406 13.316406 C 17.351562 12.871094 18.425781 11.976562 18.453125 11.953125 C 18.472656 11.933594 18.585938 11.839844 18.703125 11.742188 C 18.824219 11.648438 19.03125 11.472656 19.167969 11.359375 C 19.582031 11.011719 20.285156 10.421875 20.941406 9.878906 C 21.113281 9.734375 21.367188 9.523438 21.503906 9.40625 C 21.855469 9.113281 22.304688 8.738281 23.953125 7.367188 C 23.988281 7.335938 24.101562 7.238281 24.207031 7.152344 C 24.589844 6.832031 24.839844 6.820312 25.019531 7.117188 C 25.085938 7.21875 25.089844 7.265625 25.089844 8.316406 L 25.089844 9.410156 L 25.382812 9.164062 C 25.75 8.859375 26.101562 8.566406 26.445312 8.277344 C 26.585938 8.15625 26.734375 8.03125 26.773438 8 C 26.808594 7.96875 26.953125 7.851562 27.09375 7.738281 C 27.230469 7.628906 27.351562 7.527344 27.359375 7.519531 C 27.394531 7.480469 27.957031 7.015625 28.03125 6.964844 C 28.234375 6.828125 28.570312 6.953125 28.636719 7.191406 C 28.683594 7.351562 28.683594 24.738281 28.640625 24.890625 C 28.59375 25.0625 28.433594 25.183594 28.257812 25.183594 C 28.078125 25.183594 28.097656 25.195312 27.390625 24.609375 C 27.085938 24.355469 26.804688 24.121094 26.769531 24.089844 C 26.734375 24.0625 26.636719 23.984375 26.558594 23.914062 C 26.476562 23.847656 26.34375 23.734375 26.257812 23.664062 C 26.171875 23.59375 25.988281 23.441406 25.855469 23.328125 C 25.71875 23.214844 25.492188 23.023438 25.347656 22.902344 L 25.089844 22.683594 L 25.085938 23.75 C 25.085938 24.917969 25.074219 25.011719 24.886719 25.136719 C 24.703125 25.253906 24.511719 25.203125 24.207031 24.945312 C 24.101562 24.855469 23.988281 24.761719 23.953125 24.730469 C 23.917969 24.703125 23.816406 24.617188 23.726562 24.542969 C 23.640625 24.46875 23.539062 24.386719 23.503906 24.355469 C 23.082031 24.007812 21.894531 23.019531 21.867188 22.992188 C 21.847656 22.976562 21.6875 22.839844 21.515625 22.695312 C 20.929688 22.210938 19.601562 21.101562 19.535156 21.050781 C 19.25 20.8125 19.011719 20.613281 18.945312 20.554688 C 18.84375 20.46875 18.566406 20.234375 18.480469 20.164062 C 18.445312 20.136719 18.203125 19.9375 17.945312 19.71875 C 17.683594 19.503906 17.257812 19.152344 17 18.9375 C 16.742188 18.71875 16.476562 18.5 16.414062 18.441406 C 16.015625 18.078125 15.996094 18.074219 15.773438 18.265625 C 15.675781 18.347656 15.527344 18.472656 15.441406 18.542969 C 15.277344 18.679688 15.042969 18.875 14.917969 18.980469 C 14.839844 19.046875 13.453125 20.203125 12.917969 20.648438 C 12.742188 20.792969 12.585938 20.925781 12.5625 20.945312 C 12.484375 21.015625 9.835938 23.21875 9.757812 23.28125 C 9.710938 23.316406 9.589844 23.417969 9.484375 23.507812 C 9.082031 23.859375 7.5625 25.109375 7.5 25.148438 C 7.328125 25.238281 7.0625 25.164062 6.9375 24.984375 C 6.933594 24.980469 6.921875 24.460938 6.914062 23.832031 L 6.894531 22.683594 L 5.871094 23.535156 C 4.6875 24.519531 4.253906 24.882812 4.132812 24.988281 C 3.800781 25.277344 3.433594 25.238281 3.332031 24.902344 C 3.277344 24.714844 3.28125 7.421875 3.335938 7.210938 C 3.40625 6.941406 3.726562 6.808594 3.9375 6.957031 M 27.613281 8.378906 C 27.496094 8.476562 27.332031 8.617188 27.246094 8.6875 C 27.160156 8.757812 27.03125 8.867188 26.960938 8.929688 C 26.886719 8.988281 26.769531 9.085938 26.695312 9.144531 C 26.625 9.203125 26.523438 9.289062 26.472656 9.332031 C 26.425781 9.375 26.199219 9.566406 25.972656 9.753906 C 25.742188 9.941406 25.449219 10.191406 25.3125 10.304688 C 25.175781 10.417969 24.996094 10.570312 24.910156 10.640625 C 24.824219 10.710938 24.695312 10.820312 24.625 10.878906 C 24.550781 10.941406 24.449219 11.027344 24.394531 11.070312 C 24.003906 11.394531 23.175781 12.085938 22.964844 12.265625 C 22.820312 12.386719 22.675781 12.511719 22.640625 12.539062 C 22.605469 12.570312 22.230469 12.878906 21.808594 13.230469 C 21.386719 13.585938 21.011719 13.894531 20.976562 13.925781 C 20.941406 13.953125 20.789062 14.082031 20.640625 14.207031 C 20.492188 14.335938 20.339844 14.460938 20.304688 14.492188 C 19.996094 14.746094 19.03125 15.550781 18.941406 15.628906 C 18.78125 15.769531 18.558594 15.949219 18.507812 15.976562 C 18.441406 16.015625 18.453125 16.082031 18.539062 16.136719 C 18.582031 16.164062 18.636719 16.207031 18.660156 16.230469 C 18.683594 16.253906 18.964844 16.488281 19.28125 16.75 C 19.597656 17.015625 19.890625 17.261719 19.9375 17.300781 C 20.027344 17.378906 20.234375 17.554688 20.464844 17.742188 C 20.550781 17.8125 20.6875 17.925781 20.765625 17.996094 C 20.847656 18.0625 20.941406 18.140625 20.976562 18.171875 C 21.011719 18.199219 21.257812 18.402344 21.519531 18.625 C 21.785156 18.84375 22.035156 19.050781 22.078125 19.085938 C 22.121094 19.125 22.257812 19.238281 22.382812 19.34375 C 22.507812 19.453125 22.652344 19.574219 22.707031 19.617188 C 22.761719 19.660156 23.152344 19.984375 23.570312 20.335938 C 23.992188 20.6875 24.363281 21 24.398438 21.027344 C 24.433594 21.058594 24.582031 21.179688 24.722656 21.300781 C 24.996094 21.53125 25.390625 21.859375 25.953125 22.324219 C 26.136719 22.476562 26.347656 22.652344 26.417969 22.714844 C 26.488281 22.78125 26.609375 22.882812 26.6875 22.945312 C 26.765625 23.003906 26.929688 23.144531 27.054688 23.25 C 27.179688 23.355469 27.40625 23.546875 27.558594 23.675781 L 27.839844 23.90625 L 27.839844 16.050781 C 27.839844 11.726562 27.835938 8.191406 27.832031 8.191406 C 27.828125 8.195312 27.730469 8.277344 27.613281 8.378906 M 4.160156 16.050781 C 4.160156 23.449219 4.164062 23.878906 4.214844 23.835938 C 4.339844 23.734375 4.4375 23.652344 4.652344 23.46875 C 4.777344 23.363281 5.269531 22.953125 5.742188 22.558594 C 6.21875 22.164062 6.613281 21.835938 6.625 21.824219 C 6.632812 21.816406 6.703125 21.757812 6.777344 21.699219 L 6.910156 21.59375 L 6.910156 10.5 L 6.777344 10.394531 C 6.703125 10.335938 6.605469 10.257812 6.558594 10.21875 C 6.457031 10.132812 6.179688 9.898438 6.097656 9.828125 C 6.0625 9.800781 5.746094 9.539062 5.394531 9.246094 C 5.042969 8.957031 4.6875 8.660156 4.609375 8.589844 C 4.527344 8.519531 4.394531 8.40625 4.3125 8.339844 L 4.160156 8.21875 L 4.160156 16.050781 M 7.710938 16.066406 L 7.710938 23.914062 L 7.800781 23.835938 C 7.890625 23.753906 9.148438 22.703125 9.332031 22.558594 C 9.386719 22.515625 9.777344 22.191406 10.195312 21.839844 C 10.617188 21.488281 10.988281 21.175781 11.023438 21.148438 C 11.058594 21.117188 11.152344 21.039062 11.234375 20.972656 C 11.3125 20.902344 11.449219 20.789062 11.535156 20.71875 C 11.621094 20.648438 11.75 20.542969 11.824219 20.480469 C 11.898438 20.417969 12.027344 20.308594 12.113281 20.238281 C 12.195312 20.167969 12.332031 20.054688 12.414062 19.984375 C 12.496094 19.914062 12.601562 19.828125 12.644531 19.792969 C 12.75 19.707031 13.730469 18.890625 14.046875 18.625 C 14.183594 18.507812 14.363281 18.359375 14.449219 18.289062 C 14.535156 18.21875 14.671875 18.105469 14.75 18.035156 C 14.832031 17.96875 14.925781 17.890625 14.960938 17.859375 C 14.996094 17.832031 15.238281 17.628906 15.503906 17.40625 C 15.769531 17.1875 16.011719 16.984375 16.046875 16.957031 C 16.082031 16.925781 16.230469 16.804688 16.371094 16.683594 C 16.78125 16.335938 17.058594 16.113281 17.089844 16.101562 C 17.152344 16.078125 17.113281 16.03125 16.875 15.835938 C 16.742188 15.722656 16.527344 15.546875 16.402344 15.4375 C 16.277344 15.332031 16.132812 15.210938 16.078125 15.167969 C 16.023438 15.125 15.632812 14.800781 15.210938 14.449219 C 14.328125 13.710938 14.363281 13.738281 14.171875 13.578125 C 14.09375 13.511719 13.957031 13.398438 13.871094 13.328125 C 13.789062 13.257812 13.652344 13.144531 13.570312 13.078125 C 13.492188 13.007812 13.394531 12.929688 13.359375 12.902344 C 12.40625 12.109375 12.136719 11.882812 12.09375 11.84375 C 12.0625 11.816406 11.941406 11.710938 11.824219 11.617188 C 11.703125 11.519531 11.488281 11.339844 11.347656 11.222656 C 11.203125 11.101562 11.058594 10.976562 11.023438 10.949219 C 10.988281 10.917969 10.792969 10.757812 10.589844 10.589844 C 10.390625 10.421875 10.042969 10.132812 9.824219 9.953125 C 9.605469 9.769531 9.40625 9.605469 9.386719 9.585938 C 9.292969 9.496094 7.765625 8.238281 7.742188 8.230469 C 7.722656 8.222656 7.710938 11.265625 7.710938 16.066406 M 23.917969 8.472656 C 23.757812 8.609375 23.425781 8.886719 23.183594 9.089844 C 22.941406 9.289062 22.640625 9.542969 22.515625 9.648438 C 22.390625 9.753906 22.242188 9.878906 22.1875 9.921875 C 22.132812 9.964844 21.746094 10.289062 21.324219 10.640625 C 20.902344 10.992188 20.53125 11.304688 20.496094 11.332031 C 20.460938 11.363281 20.367188 11.441406 20.285156 11.507812 C 20.203125 11.578125 20.070312 11.691406 19.984375 11.761719 C 19.898438 11.832031 19.761719 11.945312 19.679688 12.015625 C 19.597656 12.085938 19.496094 12.171875 19.449219 12.207031 C 19.34375 12.292969 18.367188 13.105469 18.035156 13.386719 C 17.894531 13.507812 17.742188 13.636719 17.695312 13.671875 C 17.652344 13.710938 17.402344 13.917969 17.144531 14.136719 C 16.882812 14.355469 16.671875 14.546875 16.679688 14.558594 C 16.6875 14.589844 17.609375 15.375 17.71875 15.445312 C 17.789062 15.492188 17.804688 15.484375 18.054688 15.273438 C 18.199219 15.15625 18.347656 15.03125 18.382812 15.003906 C 18.417969 14.972656 18.511719 14.894531 18.59375 14.828125 C 18.671875 14.757812 18.808594 14.644531 18.894531 14.574219 C 18.980469 14.503906 19.066406 14.433594 19.085938 14.414062 C 19.105469 14.398438 19.191406 14.324219 19.28125 14.253906 C 19.367188 14.183594 19.46875 14.101562 19.503906 14.070312 C 19.539062 14.035156 19.925781 13.714844 20.363281 13.347656 C 20.804688 12.984375 21.277344 12.589844 21.421875 12.46875 C 21.5625 12.347656 21.707031 12.226562 21.746094 12.195312 C 21.800781 12.148438 23.242188 10.949219 23.40625 10.8125 C 23.441406 10.78125 23.539062 10.703125 23.617188 10.636719 C 23.699219 10.566406 23.835938 10.453125 23.921875 10.382812 C 24.007812 10.3125 24.121094 10.21875 24.167969 10.171875 L 24.257812 10.085938 L 24.257812 9.15625 C 24.257812 8.644531 24.246094 8.222656 24.230469 8.226562 C 24.21875 8.226562 24.078125 8.335938 23.917969 8.472656 M 17.675781 16.679688 C 17.625 16.71875 17.554688 16.777344 17.519531 16.808594 C 17.484375 16.84375 17.28125 17.015625 17.0625 17.191406 C 16.847656 17.371094 16.671875 17.53125 16.675781 17.550781 C 16.675781 17.570312 16.871094 17.742188 17.105469 17.9375 C 17.34375 18.128906 17.578125 18.324219 17.628906 18.367188 C 17.679688 18.410156 17.863281 18.566406 18.035156 18.710938 C 18.289062 18.921875 19.164062 19.648438 19.472656 19.90625 C 19.507812 19.9375 19.601562 20.015625 19.679688 20.085938 C 19.761719 20.152344 19.890625 20.261719 19.96875 20.324219 C 20.1875 20.507812 21.507812 21.609375 21.601562 21.6875 C 22.355469 22.332031 24.214844 23.871094 24.238281 23.871094 C 24.25 23.871094 24.257812 23.453125 24.257812 22.941406 L 24.257812 22.015625 L 24.164062 21.925781 C 24.113281 21.878906 24.003906 21.78125 23.917969 21.710938 C 23.835938 21.640625 23.703125 21.535156 23.632812 21.472656 C 23.558594 21.410156 23.429688 21.300781 23.34375 21.230469 C 23.257812 21.160156 23.121094 21.046875 23.042969 20.980469 C 22.960938 20.914062 22.867188 20.832031 22.832031 20.804688 C 22.355469 20.414062 21.429688 19.640625 21.339844 19.558594 C 21.273438 19.5 21.179688 19.417969 21.128906 19.382812 C 21.015625 19.296875 19.011719 17.628906 18.703125 17.363281 C 18.578125 17.253906 18.414062 17.117188 18.335938 17.054688 C 18.257812 16.996094 18.109375 16.867188 18 16.777344 C 17.769531 16.582031 17.792969 16.589844 17.675781 16.679688 "/>
<path style=" stroke:none;fill-rule:evenodd;fill:rgb(51.764709%,51.764709%,51.764709%);fill-opacity:1;" d="M 24.359375 7.0625 C 24.28125 7.140625 24.28125 7.140625 24.351562 7.089844 C 24.488281 6.980469 24.492188 6.976562 24.472656 6.976562 C 24.457031 6.976562 24.410156 7.015625 24.359375 7.0625 M 24.929688 7.0625 C 24.96875 7.121094 25.007812 7.167969 25.015625 7.167969 C 25.039062 7.167969 24.960938 7.046875 24.90625 7.003906 C 24.871094 6.976562 24.878906 7 24.929688 7.0625 M 25.03125 8.34375 C 25.027344 8.964844 25.035156 9.472656 25.046875 9.472656 C 25.070312 9.472656 25.070312 8.628906 25.046875 7.617188 C 25.042969 7.394531 25.035156 7.722656 25.03125 8.34375 M 3.34375 16.046875 C 3.34375 20.871094 3.347656 22.839844 3.351562 20.421875 C 3.355469 18.003906 3.355469 14.058594 3.351562 11.652344 C 3.347656 9.246094 3.34375 11.226562 3.34375 16.046875 M 6.917969 8.363281 C 6.914062 9.167969 6.902344 9.4375 6.875 9.421875 C 6.851562 9.40625 6.847656 9.414062 6.863281 9.4375 C 6.929688 9.546875 6.945312 9.339844 6.9375 8.351562 L 6.925781 7.28125 L 6.917969 8.363281 M 23.726562 7.59375 L 23.632812 7.695312 L 23.734375 7.601562 C 23.792969 7.550781 23.839844 7.503906 23.839844 7.496094 C 23.839844 7.472656 23.8125 7.496094 23.726562 7.59375 M 4.097656 16.046875 C 4.097656 20.386719 4.105469 23.9375 4.121094 23.9375 C 4.132812 23.9375 4.144531 20.386719 4.144531 16.046875 C 4.144531 11.710938 4.132812 8.160156 4.121094 8.160156 C 4.105469 8.160156 4.097656 11.710938 4.097656 16.046875 M 26.449219 8.308594 L 26.289062 8.453125 L 26.457031 8.320312 C 26.601562 8.203125 26.648438 8.15625 26.617188 8.160156 C 26.613281 8.160156 26.535156 8.226562 26.449219 8.308594 M 7.695312 16.046875 C 7.695312 20.359375 7.699219 22.121094 7.703125 19.957031 C 7.707031 17.796875 7.707031 14.269531 7.703125 12.117188 C 7.699219 9.96875 7.695312 11.734375 7.695312 16.046875 M 27.503906 8.425781 L 27.40625 8.527344 L 27.511719 8.433594 C 27.570312 8.382812 27.617188 8.335938 27.617188 8.328125 C 27.617188 8.304688 27.589844 8.328125 27.503906 8.425781 M 9.855469 8.9375 C 9.855469 8.945312 9.9375 9.023438 10.039062 9.109375 C 10.140625 9.195312 10.210938 9.246094 10.199219 9.226562 C 10.171875 9.183594 9.855469 8.914062 9.855469 8.9375 M 21.4375 9.496094 L 21.359375 9.585938 L 21.457031 9.503906 C 21.507812 9.460938 21.558594 9.421875 21.566406 9.414062 C 21.574219 9.410156 21.5625 9.40625 21.546875 9.40625 C 21.53125 9.40625 21.480469 9.449219 21.4375 9.496094 M 6.273438 9.929688 C 6.273438 9.933594 6.320312 9.980469 6.375 10.035156 L 6.480469 10.128906 L 6.386719 10.023438 C 6.296875 9.925781 6.273438 9.90625 6.273438 9.929688 M 25.265625 10.292969 L 25.105469 10.4375 L 25.273438 10.304688 C 25.417969 10.1875 25.464844 10.140625 25.433594 10.144531 C 25.425781 10.144531 25.351562 10.210938 25.265625 10.292969 M 6.894531 16.046875 C 6.894531 19.132812 6.90625 21.652344 6.921875 21.644531 C 6.953125 21.625 6.953125 10.472656 6.921875 10.453125 C 6.90625 10.445312 6.894531 12.960938 6.894531 16.046875 M 23.550781 10.722656 L 23.375 10.886719 L 23.542969 10.753906 C 23.691406 10.632812 23.769531 10.558594 23.738281 10.5625 C 23.734375 10.5625 23.648438 10.636719 23.550781 10.722656 M 18.625 11.84375 L 18.449219 12.007812 L 18.617188 11.871094 C 18.761719 11.753906 18.839844 11.679688 18.808594 11.679688 C 18.804688 11.679688 18.722656 11.753906 18.625 11.84375 M 15.050781 13.269531 C 15.078125 13.3125 15.390625 13.582031 15.390625 13.558594 C 15.390625 13.550781 15.308594 13.472656 15.210938 13.386719 C 15.109375 13.300781 15.035156 13.25 15.050781 13.269531 M 19.09375 15.441406 C 19.042969 15.484375 19.015625 15.519531 19.03125 15.519531 C 19.046875 15.519531 19.09375 15.484375 19.136719 15.441406 C 19.230469 15.339844 19.210938 15.339844 19.09375 15.441406 M 17.992188 16.726562 C 18.019531 16.769531 18.335938 17.035156 18.335938 17.015625 C 18.335938 17.007812 18.253906 16.929688 18.152344 16.84375 C 18.054688 16.757812 17.980469 16.703125 17.992188 16.726562 M 15.695312 18.28125 L 15.601562 18.382812 L 15.703125 18.289062 C 15.800781 18.203125 15.824219 18.175781 15.796875 18.175781 C 15.792969 18.175781 15.746094 18.222656 15.695312 18.28125 M 20.703125 18.984375 C 20.703125 18.992188 20.785156 19.070312 20.886719 19.15625 C 20.988281 19.242188 21.058594 19.296875 21.046875 19.273438 C 21.019531 19.230469 20.703125 18.964844 20.703125 18.984375 M 22.914062 19.847656 C 22.921875 19.851562 22.980469 19.898438 23.039062 19.953125 L 23.152344 20.046875 L 23.058594 19.945312 C 23.007812 19.886719 22.949219 19.839844 22.933594 19.839844 C 22.914062 19.839844 22.90625 19.84375 22.914062 19.847656 M 20.191406 20.554688 C 20.191406 20.5625 20.265625 20.628906 20.351562 20.703125 C 20.441406 20.777344 20.511719 20.832031 20.511719 20.820312 C 20.511719 20.8125 20.441406 20.746094 20.351562 20.671875 C 20.265625 20.597656 20.191406 20.546875 20.191406 20.554688 M 11.277344 20.96875 L 11.183594 21.070312 L 11.296875 20.976562 C 11.355469 20.921875 11.414062 20.875 11.421875 20.871094 C 11.429688 20.867188 11.421875 20.863281 11.402344 20.863281 C 11.386719 20.863281 11.328125 20.910156 11.277344 20.96875 M 6.351562 22.089844 L 6.257812 22.191406 L 6.367188 22.097656 C 6.429688 22.042969 6.484375 21.996094 6.492188 21.992188 C 6.5 21.988281 6.492188 21.984375 6.476562 21.984375 C 6.457031 21.984375 6.402344 22.03125 6.351562 22.089844 M 20.800781 22.058594 C 20.800781 22.066406 20.871094 22.132812 20.960938 22.207031 C 21.046875 22.28125 21.121094 22.335938 21.121094 22.324219 C 21.121094 22.316406 21.046875 22.25 20.960938 22.175781 C 20.871094 22.101562 20.800781 22.050781 20.800781 22.058594 M 22.496094 22.472656 C 22.496094 22.480469 22.542969 22.527344 22.601562 22.578125 L 22.703125 22.671875 L 22.609375 22.566406 C 22.523438 22.472656 22.496094 22.449219 22.496094 22.472656 M 6.863281 22.65625 C 6.847656 22.683594 6.851562 22.691406 6.875 22.675781 C 6.902344 22.65625 6.914062 22.925781 6.917969 23.734375 L 6.925781 24.816406 L 6.9375 23.746094 C 6.945312 22.753906 6.929688 22.546875 6.863281 22.65625 M 25.03125 23.734375 C 25.035156 24.347656 25.042969 24.675781 25.046875 24.464844 C 25.070312 23.496094 25.070312 22.625 25.046875 22.625 C 25.035156 22.625 25.027344 23.125 25.03125 23.734375 M 8.957031 22.902344 L 8.878906 22.992188 L 8.976562 22.910156 C 9.027344 22.867188 9.078125 22.828125 9.085938 22.824219 C 9.09375 22.820312 9.085938 22.816406 9.066406 22.816406 C 9.050781 22.816406 9 22.855469 8.957031 22.902344 M 26.855469 23.125 C 26.886719 23.167969 27.199219 23.4375 27.199219 23.414062 C 27.199219 23.40625 27.117188 23.328125 27.015625 23.242188 C 26.917969 23.15625 26.84375 23.105469 26.855469 23.125 M 25.726562 23.179688 C 25.726562 23.1875 25.800781 23.253906 25.886719 23.328125 C 25.976562 23.402344 26.046875 23.453125 26.046875 23.445312 C 26.046875 23.4375 25.976562 23.371094 25.886719 23.296875 C 25.800781 23.222656 25.726562 23.167969 25.726562 23.179688 M 5.140625 24.082031 C 5.09375 24.125 5.066406 24.160156 5.082031 24.160156 C 5.097656 24.160156 5.144531 24.125 5.183594 24.078125 C 5.28125 23.976562 5.257812 23.980469 5.140625 24.082031 M 24.929688 25.03125 C 24.878906 25.097656 24.871094 25.117188 24.90625 25.089844 C 24.960938 25.046875 25.039062 24.929688 25.015625 24.929688 C 25.007812 24.929688 24.96875 24.976562 24.929688 25.03125 "/>
<path style=" stroke:none;fill-rule:evenodd;fill:rgb(33.333334%,33.333334%,33.333334%);fill-opacity:1;" d="M 24.816406 6.949219 C 24.851562 6.96875 24.902344 7 24.929688 7.019531 C 24.957031 7.039062 24.945312 7.023438 24.902344 6.984375 C 24.863281 6.945312 24.8125 6.914062 24.789062 6.914062 C 24.769531 6.914062 24.78125 6.929688 24.816406 6.949219 M 4.039062 7.058594 C 4.085938 7.109375 4.132812 7.140625 4.140625 7.132812 C 4.144531 7.125 4.105469 7.085938 4.050781 7.042969 L 3.953125 6.964844 L 4.039062 7.058594 M 24.300781 7.078125 L 24.207031 7.183594 L 24.320312 7.089844 C 24.382812 7.035156 24.4375 6.988281 24.445312 6.984375 C 24.453125 6.980469 24.445312 6.976562 24.425781 6.976562 C 24.410156 6.976562 24.355469 7.023438 24.300781 7.078125 M 25.011719 7.136719 C 25.027344 7.164062 25.046875 7.6875 25.058594 8.304688 L 25.074219 9.425781 L 25.082031 8.316406 C 25.085938 7.351562 25.082031 7.203125 25.039062 7.148438 C 25.011719 7.117188 25 7.109375 25.011719 7.136719 M 4.320312 7.273438 C 4.320312 7.28125 4.367188 7.328125 4.425781 7.378906 L 4.527344 7.472656 L 4.433594 7.367188 C 4.347656 7.269531 4.320312 7.25 4.320312 7.273438 M 28.65625 16.046875 C 28.65625 20.886719 28.660156 22.863281 28.664062 20.4375 C 28.667969 18.011719 28.667969 14.050781 28.664062 11.636719 C 28.660156 9.222656 28.65625 11.207031 28.65625 16.046875 M 3.3125 16.0625 C 3.3125 20.894531 3.316406 22.871094 3.320312 20.457031 C 3.324219 18.039062 3.324219 14.085938 3.320312 11.671875 C 3.316406 9.257812 3.3125 11.234375 3.3125 16.0625 M 26.996094 7.808594 C 26.894531 7.898438 26.824219 7.96875 26.835938 7.96875 C 26.867188 7.964844 27.226562 7.648438 27.199219 7.648438 C 27.191406 7.652344 27.101562 7.722656 26.996094 7.808594 M 8.878906 8.101562 C 8.96875 8.1875 9.050781 8.253906 9.066406 8.253906 C 9.078125 8.253906 9.035156 8.210938 8.96875 8.152344 C 8.75 7.96875 8.714844 7.949219 8.878906 8.101562 M 26.542969 8.199219 L 26.449219 8.304688 L 26.550781 8.210938 C 26.609375 8.160156 26.65625 8.113281 26.65625 8.105469 C 26.65625 8.082031 26.628906 8.101562 26.542969 8.199219 M 24.167969 8.246094 C 24.117188 8.296875 24.105469 8.3125 24.144531 8.28125 C 24.183594 8.25 24.222656 8.222656 24.234375 8.222656 C 24.285156 8.222656 24.257812 10.0625 24.207031 10.144531 L 24.15625 10.222656 L 24.222656 10.148438 C 24.285156 10.078125 24.332031 8.160156 24.273438 8.160156 C 24.265625 8.160156 24.214844 8.199219 24.167969 8.246094 M 4.128906 16.046875 C 4.128906 20.53125 4.140625 23.902344 4.15625 23.902344 C 4.171875 23.902344 4.203125 23.878906 4.226562 23.847656 C 4.269531 23.796875 4.265625 23.796875 4.214844 23.835938 C 4.164062 23.878906 4.160156 23.503906 4.160156 16.046875 L 4.160156 8.210938 L 4.246094 8.289062 L 4.335938 8.367188 L 4.257812 8.28125 C 4.214844 8.230469 4.167969 8.191406 4.15625 8.191406 C 4.140625 8.191406 4.128906 11.726562 4.128906 16.046875 M 7.714844 8.199219 C 7.722656 8.203125 7.769531 8.242188 7.824219 8.289062 L 7.921875 8.367188 L 7.84375 8.28125 C 7.800781 8.230469 7.75 8.191406 7.734375 8.191406 C 7.714844 8.191406 7.707031 8.195312 7.714844 8.199219 M 27.855469 16.046875 C 27.855469 20.359375 27.859375 22.121094 27.863281 19.957031 C 27.867188 17.796875 27.867188 14.269531 27.863281 12.117188 C 27.859375 9.96875 27.855469 11.734375 27.855469 16.046875 M 4.539062 8.523438 C 4.59375 8.585938 4.894531 8.84375 4.894531 8.824219 C 4.894531 8.816406 4.804688 8.730469 4.695312 8.636719 C 4.585938 8.542969 4.515625 8.492188 4.539062 8.523438 M 23.632812 8.691406 L 23.472656 8.839844 L 23.640625 8.703125 C 23.785156 8.589844 23.832031 8.542969 23.800781 8.542969 C 23.796875 8.546875 23.71875 8.609375 23.632812 8.691406 M 25.964844 8.679688 L 25.871094 8.785156 L 25.976562 8.691406 C 26.03125 8.636719 26.078125 8.589844 26.078125 8.585938 C 26.078125 8.5625 26.054688 8.582031 25.964844 8.679688 M 6.058594 8.726562 C 6.085938 8.769531 6.398438 9.035156 6.398438 9.015625 C 6.398438 9.007812 6.316406 8.929688 6.21875 8.84375 C 6.117188 8.757812 6.042969 8.703125 6.058594 8.726562 M 22.070312 8.929688 C 21.96875 9.015625 21.894531 9.085938 21.910156 9.085938 C 21.9375 9.085938 22.300781 8.769531 22.273438 8.769531 C 22.261719 8.769531 22.171875 8.84375 22.070312 8.929688 M 22.925781 9.289062 L 22.832031 9.390625 L 22.9375 9.296875 C 22.992188 9.246094 23.039062 9.199219 23.039062 9.195312 C 23.039062 9.167969 23.011719 9.191406 22.925781 9.289062 M 6.726562 9.296875 C 6.773438 9.347656 6.820312 9.382812 6.828125 9.375 C 6.832031 9.367188 6.792969 9.324219 6.738281 9.28125 L 6.640625 9.207031 L 6.726562 9.296875 M 21.613281 9.320312 L 21.519531 9.425781 L 21.625 9.328125 C 21.679688 9.277344 21.726562 9.230469 21.726562 9.226562 C 21.726562 9.203125 21.703125 9.222656 21.613281 9.320312 M 26.238281 9.507812 L 26.0625 9.671875 L 26.230469 9.535156 C 26.378906 9.417969 26.457031 9.34375 26.425781 9.34375 C 26.421875 9.34375 26.335938 9.417969 26.238281 9.507812 M 9.480469 9.652344 C 9.507812 9.699219 9.824219 9.964844 9.824219 9.941406 C 9.824219 9.933594 9.742188 9.859375 9.640625 9.773438 C 9.539062 9.6875 9.46875 9.632812 9.480469 9.652344 M 22.351562 9.769531 L 22.257812 9.871094 L 22.359375 9.777344 C 22.417969 9.726562 22.464844 9.679688 22.464844 9.675781 C 22.464844 9.648438 22.4375 9.671875 22.351562 9.769531 M 21.886719 10.148438 L 21.710938 10.3125 L 21.878906 10.175781 C 22.027344 10.058594 22.105469 9.980469 22.074219 9.984375 C 22.070312 9.984375 21.984375 10.058594 21.886719 10.148438 M 11.65625 10.417969 C 11.703125 10.46875 11.746094 10.503906 11.753906 10.496094 C 11.761719 10.488281 11.722656 10.445312 11.667969 10.402344 L 11.566406 10.324219 L 11.65625 10.417969 M 24.589844 10.886719 L 24.496094 10.992188 L 24.601562 10.898438 C 24.65625 10.847656 24.703125 10.800781 24.703125 10.792969 C 24.703125 10.769531 24.675781 10.792969 24.589844 10.886719 M 23.980469 11.398438 L 23.886719 11.503906 L 23.992188 11.410156 C 24.050781 11.359375 24.097656 11.3125 24.097656 11.304688 C 24.097656 11.28125 24.070312 11.304688 23.980469 11.398438 M 21.992188 11.984375 C 21.878906 12.082031 21.800781 12.160156 21.8125 12.160156 C 21.828125 12.160156 21.925781 12.082031 22.03125 11.984375 C 22.28125 11.757812 22.25 11.761719 21.992188 11.984375 M 12.191406 11.914062 C 12.191406 11.921875 12.273438 12 12.375 12.085938 C 12.476562 12.167969 12.546875 12.222656 12.535156 12.203125 C 12.507812 12.15625 12.191406 11.890625 12.191406 11.914062 M 19.585938 12.070312 C 19.5 12.144531 19.480469 12.171875 19.535156 12.136719 C 19.625 12.074219 19.769531 11.933594 19.742188 11.9375 C 19.734375 11.9375 19.664062 11.996094 19.585938 12.070312 M 13.8125 12.214844 C 13.867188 12.261719 13.988281 12.367188 14.082031 12.441406 L 14.257812 12.582031 L 14.113281 12.449219 C 14.03125 12.375 13.910156 12.273438 13.839844 12.21875 C 13.71875 12.125 13.714844 12.125 13.8125 12.214844 M 22.460938 12.664062 L 22.382812 12.753906 L 22.480469 12.671875 C 22.53125 12.628906 22.582031 12.589844 22.589844 12.585938 C 22.597656 12.578125 22.589844 12.574219 22.570312 12.574219 C 22.554688 12.574219 22.503906 12.617188 22.460938 12.664062 M 14.464844 12.746094 C 14.464844 12.75 14.511719 12.796875 14.566406 12.851562 L 14.671875 12.945312 L 14.578125 12.839844 C 14.492188 12.742188 14.464844 12.722656 14.464844 12.746094 M 16.96875 13.183594 C 16.910156 13.238281 16.875 13.28125 16.890625 13.28125 C 16.902344 13.28125 16.957031 13.238281 17.007812 13.183594 C 17.125 13.0625 17.101562 13.0625 16.96875 13.183594 M 15.039062 13.226562 C 15.039062 13.230469 15.085938 13.277344 15.144531 13.328125 L 15.246094 13.425781 L 15.152344 13.320312 C 15.066406 13.222656 15.039062 13.203125 15.039062 13.226562 M 19.710938 13.890625 L 19.535156 14.054688 L 19.703125 13.921875 C 19.851562 13.800781 19.929688 13.726562 19.898438 13.730469 C 19.890625 13.730469 19.808594 13.804688 19.710938 13.890625 M 17.390625 13.90625 L 17.230469 14.054688 L 17.398438 13.921875 C 17.546875 13.804688 17.589844 13.757812 17.558594 13.761719 C 17.554688 13.761719 17.480469 13.828125 17.390625 13.90625 M 19.191406 14.320312 C 19.140625 14.363281 19.113281 14.398438 19.128906 14.398438 C 19.144531 14.398438 19.191406 14.363281 19.230469 14.320312 C 19.328125 14.21875 19.304688 14.21875 19.191406 14.320312 M 16.710938 14.472656 C 16.617188 14.574219 16.605469 14.558594 16.886719 14.78125 C 17.023438 14.894531 17.09375 14.941406 17.039062 14.890625 C 16.988281 14.839844 16.878906 14.746094 16.800781 14.683594 L 16.65625 14.5625 L 16.734375 14.480469 C 16.777344 14.4375 16.804688 14.398438 16.796875 14.398438 C 16.785156 14.398438 16.746094 14.433594 16.710938 14.472656 M 20.125 14.617188 L 20.046875 14.703125 L 20.144531 14.625 C 20.195312 14.578125 20.246094 14.539062 20.253906 14.535156 C 20.261719 14.53125 20.253906 14.527344 20.234375 14.527344 C 20.21875 14.527344 20.167969 14.566406 20.125 14.617188 M 17.152344 14.984375 C 17.152344 14.992188 17.199219 15.039062 17.257812 15.089844 L 17.359375 15.183594 L 17.265625 15.078125 C 17.179688 14.984375 17.152344 14.960938 17.152344 14.984375 M 17.871094 15.425781 C 17.835938 15.460938 17.789062 15.480469 17.761719 15.472656 C 17.722656 15.457031 17.71875 15.460938 17.753906 15.492188 C 17.785156 15.527344 17.808594 15.515625 17.878906 15.445312 C 17.925781 15.398438 17.957031 15.359375 17.949219 15.359375 C 17.9375 15.359375 17.902344 15.390625 17.871094 15.425781 M 16.414062 15.433594 C 16.414062 15.441406 16.460938 15.484375 16.519531 15.539062 L 16.625 15.632812 L 16.53125 15.527344 C 16.441406 15.429688 16.414062 15.410156 16.414062 15.433594 M 18.925781 15.625 L 18.832031 15.726562 L 18.9375 15.632812 C 18.992188 15.582031 19.039062 15.535156 19.039062 15.53125 C 19.039062 15.503906 19.011719 15.527344 18.925781 15.625 M 16.492188 16.585938 L 16.398438 16.6875 L 16.503906 16.59375 C 16.601562 16.507812 16.621094 16.480469 16.597656 16.480469 C 16.59375 16.480469 16.546875 16.527344 16.492188 16.585938 M 17.984375 16.746094 C 17.984375 16.75 18.03125 16.796875 18.089844 16.851562 L 18.191406 16.945312 L 18.097656 16.839844 C 18.011719 16.742188 17.984375 16.722656 17.984375 16.746094 M 17.3125 16.964844 L 17.136719 17.125 L 17.320312 16.976562 C 17.480469 16.84375 17.527344 16.800781 17.496094 16.800781 C 17.492188 16.800781 17.410156 16.875 17.3125 16.964844 M 15.214844 17.652344 L 15.054688 17.796875 L 15.222656 17.664062 C 15.371094 17.546875 15.414062 17.503906 15.382812 17.503906 C 15.378906 17.503906 15.304688 17.570312 15.214844 17.652344 M 18.984375 17.585938 C 18.996094 17.605469 19.117188 17.714844 19.253906 17.824219 C 19.390625 17.9375 19.492188 18.015625 19.480469 17.996094 C 19.46875 17.980469 19.347656 17.871094 19.210938 17.757812 C 19.074219 17.644531 18.972656 17.566406 18.984375 17.585938 M 14.734375 18.054688 L 14.640625 18.160156 L 14.742188 18.066406 C 14.839844 17.976562 14.863281 17.953125 14.839844 17.953125 C 14.832031 17.953125 14.785156 18 14.734375 18.054688 M 16.515625 18.535156 C 16.523438 18.539062 16.570312 18.578125 16.625 18.625 L 16.71875 18.703125 L 16.640625 18.617188 C 16.601562 18.566406 16.550781 18.527344 16.53125 18.527344 C 16.515625 18.527344 16.507812 18.53125 16.515625 18.535156 M 16.929688 18.859375 C 16.929688 18.863281 16.976562 18.910156 17.03125 18.960938 L 17.136719 19.054688 L 17.042969 18.953125 C 16.953125 18.855469 16.929688 18.832031 16.929688 18.859375 M 22.175781 19.179688 C 22.175781 19.183594 22.222656 19.230469 22.28125 19.28125 L 22.382812 19.375 L 22.289062 19.273438 C 22.203125 19.175781 22.175781 19.152344 22.175781 19.179688 M 14.433594 19.363281 L 14.257812 19.527344 L 14.425781 19.394531 C 14.570312 19.273438 14.648438 19.199219 14.617188 19.199219 C 14.613281 19.203125 14.527344 19.273438 14.433594 19.363281 M 18.976562 19.496094 C 18.976562 19.503906 19.023438 19.550781 19.078125 19.601562 L 19.183594 19.695312 L 19.089844 19.59375 C 19.003906 19.496094 18.976562 19.472656 18.976562 19.496094 M 21.441406 19.65625 C 21.449219 19.660156 21.5 19.699219 21.550781 19.742188 L 21.648438 19.824219 L 21.570312 19.734375 C 21.527344 19.6875 21.480469 19.648438 21.460938 19.648438 C 21.445312 19.648438 21.433594 19.652344 21.441406 19.65625 M 13.933594 19.785156 L 13.839844 19.886719 L 13.945312 19.792969 C 14 19.742188 14.046875 19.695312 14.046875 19.691406 C 14.046875 19.664062 14.023438 19.6875 13.933594 19.785156 M 12.476562 19.9375 L 12.335938 20.070312 L 12.488281 19.949219 C 12.570312 19.882812 12.640625 19.824219 12.640625 19.816406 C 12.640625 19.792969 12.605469 19.820312 12.476562 19.9375 M 13.359375 20.265625 L 13.265625 20.367188 L 13.367188 20.273438 C 13.464844 20.1875 13.488281 20.160156 13.460938 20.160156 C 13.457031 20.160156 13.410156 20.207031 13.359375 20.265625 M 12.78125 20.742188 L 12.6875 20.847656 L 12.792969 20.753906 C 12.890625 20.667969 12.910156 20.640625 12.886719 20.640625 C 12.878906 20.640625 12.832031 20.6875 12.78125 20.742188 M 19.199219 20.765625 C 19.347656 20.902344 19.519531 21.039062 19.519531 21.015625 C 19.519531 21.011719 19.414062 20.921875 19.289062 20.820312 C 19.148438 20.710938 19.113281 20.6875 19.199219 20.765625 M 23.96875 20.683594 C 23.96875 20.691406 24.039062 20.757812 24.128906 20.832031 C 24.214844 20.90625 24.289062 20.957031 24.289062 20.949219 C 24.289062 20.941406 24.214844 20.875 24.128906 20.800781 C 24.039062 20.726562 23.96875 20.671875 23.96875 20.683594 M 24.511719 21.128906 C 24.511719 21.136719 24.558594 21.183594 24.617188 21.234375 L 24.71875 21.328125 L 24.625 21.222656 C 24.539062 21.128906 24.511719 21.105469 24.511719 21.128906 M 21.152344 21.320312 C 21.152344 21.328125 21.234375 21.40625 21.335938 21.492188 C 21.433594 21.578125 21.507812 21.632812 21.496094 21.609375 C 21.46875 21.566406 21.152344 21.300781 21.152344 21.320312 M 11.726562 21.621094 L 11.566406 21.765625 L 11.734375 21.632812 C 11.882812 21.515625 11.925781 21.46875 11.894531 21.472656 C 11.890625 21.472656 11.816406 21.539062 11.726562 21.621094 M 25.089844 21.609375 C 25.089844 21.617188 25.136719 21.664062 25.191406 21.714844 L 25.296875 21.808594 L 25.203125 21.703125 C 25.113281 21.605469 25.089844 21.585938 25.089844 21.609375 M 24.191406 21.953125 C 24.257812 22.015625 24.296875 23.871094 24.234375 23.871094 C 24.222656 23.871094 24.183594 23.847656 24.144531 23.816406 C 24.105469 23.785156 24.121094 23.800781 24.175781 23.855469 L 24.273438 23.949219 L 24.28125 22.992188 C 24.289062 22.015625 24.273438 21.886719 24.160156 21.886719 C 24.140625 21.886719 24.15625 21.917969 24.191406 21.953125 M 25.664062 22.089844 C 25.664062 22.09375 25.710938 22.140625 25.769531 22.195312 L 25.871094 22.289062 L 25.777344 22.183594 C 25.691406 22.085938 25.664062 22.066406 25.664062 22.089844 M 26.078125 22.441406 C 26.078125 22.449219 26.171875 22.53125 26.28125 22.625 C 26.390625 22.722656 26.460938 22.773438 26.433594 22.742188 C 26.382812 22.675781 26.078125 22.417969 26.078125 22.441406 M 6.679688 22.835938 C 6.5625 22.933594 6.464844 23.019531 6.464844 23.027344 C 6.464844 23.035156 6.566406 22.960938 6.6875 22.859375 C 6.890625 22.691406 6.929688 22.65625 6.902344 22.65625 C 6.898438 22.65625 6.796875 22.734375 6.679688 22.835938 M 21.535156 22.699219 C 21.535156 22.703125 21.582031 22.75 21.640625 22.800781 L 21.742188 22.894531 L 21.648438 22.792969 C 21.5625 22.695312 21.535156 22.671875 21.535156 22.699219 M 25.070312 23.761719 C 25.070312 24.359375 25.074219 24.597656 25.078125 24.292969 C 25.085938 23.988281 25.085938 23.5 25.078125 23.207031 C 25.074219 22.914062 25.070312 23.160156 25.070312 23.761719 M 5.089844 23.109375 L 4.910156 23.269531 L 5.078125 23.136719 C 5.226562 23.019531 5.304688 22.941406 5.273438 22.945312 C 5.269531 22.945312 5.183594 23.019531 5.089844 23.109375 M 21.953125 23.050781 C 21.953125 23.058594 22.023438 23.125 22.113281 23.199219 C 22.199219 23.273438 22.273438 23.328125 22.273438 23.316406 C 22.273438 23.308594 22.199219 23.242188 22.113281 23.167969 C 22.023438 23.09375 21.953125 23.042969 21.953125 23.050781 M 26.847656 23.082031 C 26.847656 23.085938 26.894531 23.132812 26.953125 23.1875 L 27.054688 23.28125 L 26.960938 23.175781 C 26.875 23.078125 26.847656 23.058594 26.847656 23.082031 M 23.488281 23.273438 C 23.488281 23.28125 23.558594 23.351562 23.648438 23.425781 C 23.734375 23.496094 23.808594 23.550781 23.808594 23.542969 C 23.808594 23.53125 23.734375 23.464844 23.648438 23.390625 C 23.558594 23.316406 23.488281 23.265625 23.488281 23.273438 M 9.308594 23.640625 L 9.230469 23.726562 L 9.328125 23.648438 C 9.378906 23.605469 9.429688 23.5625 9.4375 23.558594 C 9.445312 23.554688 9.4375 23.550781 9.417969 23.550781 C 9.402344 23.550781 9.351562 23.589844 9.308594 23.640625 M 26.464844 23.816406 C 26.464844 23.824219 26.511719 23.871094 26.566406 23.921875 L 26.671875 24.015625 L 26.578125 23.910156 C 26.492188 23.816406 26.464844 23.792969 26.464844 23.816406 M 26.878906 24.171875 C 26.878906 24.179688 26.953125 24.246094 27.039062 24.320312 C 27.128906 24.394531 27.199219 24.445312 27.199219 24.4375 C 27.199219 24.429688 27.128906 24.363281 27.039062 24.289062 C 26.953125 24.214844 26.878906 24.160156 26.878906 24.171875 M 24.328125 25.042969 C 24.375 25.089844 24.417969 25.125 24.425781 25.117188 C 24.433594 25.109375 24.394531 25.070312 24.339844 25.027344 L 24.238281 24.949219 L 24.328125 25.042969 M 24.867188 25.105469 C 24.808594 25.148438 24.773438 25.183594 24.792969 25.183594 C 24.8125 25.183594 24.867188 25.148438 24.917969 25.105469 C 25.03125 25.003906 25.007812 25.007812 24.867188 25.105469 "/>
</g>
</svg>
