<svg id="svg" version="1.1" xmlns="http://www.w3.org/2000/svg" xmlns:xlink="http://www.w3.org/1999/xlink" width="400" height="339.01808785529715" viewBox="0, 0, 400,339.01808785529715"><g id="svgg"><path id="path0" d="M68.325 73.954 C 67.931 74.113,67.282 74.659,66.883 75.166 L 66.158 76.088 66.158 170.296 L 66.158 264.504 67.103 265.410 C 68.133 266.396,69.741 266.863,71.012 266.544 C 71.704 266.370,76.560 262.417,96.815 245.536 C 98.655 244.003,100.334 242.595,100.547 242.409 C 102.799 240.431,103.582 239.856,103.768 240.041 C 103.888 240.161,104.063 245.731,104.156 252.418 L 104.326 264.577 105.143 265.447 C 106.014 266.374,107.730 266.865,108.988 266.549 C 109.685 266.374,114.865 262.277,120.950 257.087 C 122.256 255.974,123.630 254.809,124.003 254.498 C 124.377 254.188,131.552 248.205,139.949 241.202 C 148.346 234.200,158.651 225.611,162.850 222.116 C 167.048 218.622,171.705 214.727,173.198 213.461 C 174.690 212.196,180.110 207.667,185.242 203.396 C 190.373 199.126,195.683 194.706,197.041 193.575 C 198.400 192.444,199.634 191.476,199.784 191.424 C 199.934 191.372,203.098 193.875,206.814 196.987 C 210.530 200.098,219.449 207.542,226.633 213.529 C 241.807 226.173,241.018 225.515,242.427 226.719 C 253.216 235.944,290.110 266.398,290.672 266.544 C 291.953 266.875,293.762 266.347,294.657 265.382 L 295.505 264.468 295.505 252.356 C 295.505 245.097,295.633 240.164,295.826 240.045 C 296.003 239.936,300.753 243.705,306.382 248.422 C 312.011 253.138,317.107 257.379,317.706 257.846 C 318.305 258.312,320.234 259.929,321.993 261.439 C 328.405 266.944,329.157 267.312,331.613 266.146 C 334.044 264.993,333.842 273.730,333.842 169.808 L 333.842 76.364 332.538 74.993 C 330.522 72.874,328.840 73.102,325.449 75.953 C 324.561 76.700,322.536 78.405,320.950 79.741 C 319.364 81.077,317.761 82.425,317.388 82.736 C 317.014 83.047,312.081 87.157,306.425 91.870 C 300.770 96.583,295.999 100.350,295.823 100.242 C 295.634 100.125,295.505 95.111,295.505 87.915 L 295.505 75.784 294.540 74.860 C 291.900 72.331,291.746 72.418,276.766 84.920 C 269.999 90.569,254.232 103.720,241.730 114.145 C 229.228 124.570,218.454 133.571,217.787 134.149 C 217.120 134.727,215.823 135.826,214.903 136.591 C 213.984 137.357,210.270 140.453,206.650 143.473 C 203.030 146.492,199.948 148.919,199.800 148.866 C 199.652 148.813,198.514 147.930,197.270 146.904 C 193.059 143.430,149.550 107.155,149.062 106.712 C 148.850 106.519,147.171 105.107,145.330 103.574 C 126.661 88.019,125.427 86.988,120.436 82.782 C 108.654 72.851,108.703 72.881,106.012 74.158 C 104.241 74.999,104.157 75.632,104.151 88.176 C 104.148 94.446,104.016 99.780,103.858 100.029 C 103.644 100.367,102.359 99.460,98.814 96.467 C 90.529 89.473,72.807 74.788,71.935 74.193 C 71.039 73.583,69.496 73.481,68.325 73.954 M287.961 97.053 L 287.871 107.379 277.293 116.200 C 271.475 121.052,261.947 128.991,256.120 133.842 C 250.293 138.694,244.290 143.709,242.780 144.987 C 241.269 146.265,239.729 147.564,239.355 147.873 C 238.982 148.182,235.471 151.106,231.552 154.371 C 227.634 157.636,223.171 161.348,221.635 162.620 L 218.843 164.933 212.749 159.905 C 206.310 154.592,206.001 154.173,207.664 152.989 C 208.241 152.579,209.958 151.179,211.481 149.879 C 213.004 148.579,214.631 147.193,215.098 146.799 C 216.118 145.937,236.025 129.289,264.312 105.642 C 270.365 100.581,278.066 94.138,281.424 91.324 C 284.782 88.510,287.647 86.324,287.790 86.467 C 287.934 86.611,288.010 91.374,287.961 97.053 M84.169 94.551 C 89.253 98.807,95.792 104.279,98.700 106.711 L 103.986 111.131 104.072 170.048 L 104.158 228.964 100.837 231.785 C 99.010 233.336,96.774 235.216,95.866 235.963 C 94.959 236.709,94.049 237.475,93.843 237.664 C 93.433 238.041,75.493 252.979,74.547 253.731 C 73.992 254.172,73.961 249.738,73.961 170.319 C 73.961 97.977,74.027 86.467,74.443 86.626 C 74.708 86.728,79.085 90.294,84.169 94.551 M115.415 88.923 C 116.967 90.247,118.542 91.583,118.916 91.891 C 119.290 92.199,124.616 96.650,130.750 101.781 C 136.884 106.913,142.476 111.569,143.177 112.129 C 144.623 113.283,154.175 121.256,162.511 128.264 C 165.589 130.853,172.536 136.655,177.947 141.157 C 183.359 145.659,188.550 149.995,189.483 150.793 C 190.416 151.590,195.912 156.180,201.696 160.993 C 207.481 165.806,212.214 169.922,212.214 170.141 C 212.214 170.467,206.713 175.203,197.487 182.820 C 196.665 183.499,194.860 185.011,193.476 186.180 C 191.167 188.131,183.711 194.355,154.042 219.104 C 148.157 224.013,142.949 228.364,142.469 228.773 C 141.989 229.182,139.490 231.272,136.916 233.418 C 134.342 235.564,129.763 239.381,126.742 241.900 C 123.720 244.419,120.509 247.091,119.607 247.837 C 118.704 248.584,117.797 249.350,117.592 249.540 C 115.984 251.028,112.538 253.774,112.279 253.774 C 111.914 253.774,111.820 87.105,112.185 86.740 C 112.511 86.414,112.351 86.306,115.415 88.923 M325.700 170.144 C 325.700 216.141,325.585 253.774,325.445 253.774 C 325.241 253.773,307.480 239.098,299.579 232.400 C 295.429 228.883,292.332 226.287,288.851 223.410 C 286.820 221.730,283.164 218.677,280.727 216.624 C 278.289 214.572,275.617 212.330,274.789 211.642 C 273.960 210.955,269.950 207.596,265.877 204.178 C 261.805 200.761,257.907 197.506,257.215 196.947 C 256.524 196.387,252.223 192.802,247.657 188.981 C 243.091 185.160,239.050 181.778,238.677 181.466 C 238.304 181.154,236.759 179.853,235.243 178.575 C 233.728 177.297,230.942 174.957,229.052 173.376 C 224.871 169.879,224.854 170.412,229.262 166.746 C 231.268 165.078,233.991 162.794,235.312 161.670 C 236.634 160.546,238.084 159.320,238.535 158.945 C 238.986 158.570,242.998 155.211,247.450 151.481 C 251.902 147.751,256.118 144.241,256.820 143.681 C 258.056 142.695,274.757 128.728,277.855 126.090 C 278.699 125.371,279.695 124.528,280.068 124.216 C 285.851 119.383,292.633 113.728,295.295 111.519 C 297.140 109.988,299.659 107.878,300.893 106.829 C 309.045 99.901,325.220 86.514,325.437 86.514 C 325.582 86.514,325.700 124.148,325.700 170.144 M228.663 183.545 C 233.911 187.930,238.862 192.053,239.665 192.706 C 241.657 194.327,263.348 212.432,263.830 212.876 C 264.042 213.072,265.722 214.485,267.562 216.018 C 269.402 217.550,274.724 221.983,279.389 225.869 L 287.871 232.935 287.961 243.248 C 288.010 248.920,287.934 253.677,287.791 253.818 C 287.649 253.960,284.249 251.323,280.237 247.959 C 276.226 244.594,272.165 241.206,271.215 240.429 C 268.459 238.177,253.283 225.498,253.096 225.291 C 252.843 225.012,247.021 220.149,245.767 219.169 C 245.170 218.702,242.338 216.342,239.474 213.924 C 236.610 211.506,229.610 205.642,223.919 200.893 C 218.227 196.144,213.033 191.786,212.376 191.210 C 211.224 190.200,209.036 188.385,207.323 187.019 C 206.813 186.612,206.580 186.163,206.708 185.830 C 206.939 185.227,218.532 175.403,218.890 175.506 C 219.017 175.543,223.415 179.160,228.663 183.545 " stroke="none" fill="#f9f9f9" fill-rule="evenodd"></path><path id="path1" d="M0.000 169.635 L 0.000 339.271 200.000 339.271 L 400.000 339.271 400.000 169.635 L 400.000 0.000 200.000 0.000 L 0.000 0.000 0.000 169.635 M71.925 73.728 C 72.392 73.939,73.311 74.574,73.969 75.139 C 74.626 75.704,75.912 76.777,76.826 77.523 C 77.740 78.270,79.186 79.468,80.041 80.187 C 80.895 80.905,81.900 81.746,82.273 82.056 C 82.944 82.611,98.476 95.546,100.051 96.861 C 100.499 97.234,101.415 98.036,102.087 98.641 C 102.758 99.247,103.422 99.743,103.562 99.744 C 103.702 99.745,103.817 94.306,103.817 87.657 L 103.817 75.568 105.028 74.425 C 107.586 72.013,109.643 72.812,116.377 78.830 C 117.034 79.418,118.771 80.870,120.237 82.058 C 123.236 84.489,123.662 84.844,127.029 87.715 C 128.350 88.841,129.909 90.139,130.491 90.598 C 131.074 91.058,135.196 94.485,139.652 98.214 C 144.107 101.944,148.058 105.249,148.431 105.559 C 148.804 105.870,149.804 106.711,150.652 107.430 C 151.501 108.148,152.939 109.347,153.848 110.093 C 154.757 110.840,156.675 112.443,158.109 113.656 C 160.257 115.472,168.983 122.758,173.144 126.209 C 173.707 126.675,174.796 127.591,175.565 128.244 C 176.333 128.897,177.706 130.042,178.615 130.789 C 179.524 131.535,180.968 132.734,181.822 133.452 C 182.677 134.171,183.681 135.012,184.054 135.321 C 184.427 135.630,188.002 138.606,191.998 141.935 C 195.994 145.263,199.455 148.060,199.690 148.150 C 199.924 148.240,202.091 146.660,204.505 144.640 C 206.918 142.620,209.631 140.356,210.533 139.610 C 212.980 137.584,217.080 134.145,218.999 132.508 C 219.932 131.712,222.528 129.555,224.767 127.715 C 227.006 125.875,229.917 123.447,231.235 122.320 C 232.554 121.193,234.378 119.661,235.290 118.914 C 236.202 118.168,237.575 117.023,238.342 116.370 C 239.109 115.717,240.401 114.648,241.213 113.995 C 242.025 113.342,242.856 112.652,243.058 112.461 C 243.261 112.271,244.190 111.507,245.123 110.765 C 246.056 110.022,246.972 109.246,247.159 109.039 C 247.345 108.832,251.620 105.246,256.658 101.069 C 261.696 96.893,266.124 93.222,266.497 92.913 C 267.229 92.305,270.041 89.945,271.416 88.783 C 290.980 72.255,291.205 72.107,294.134 73.837 C 296.167 75.038,296.183 75.148,296.183 88.020 L 296.183 99.769 301.018 95.780 C 303.677 93.586,306.849 90.947,308.068 89.916 C 309.286 88.884,311.029 87.430,311.942 86.684 C 312.855 85.937,314.232 84.792,315.002 84.139 C 315.772 83.486,317.143 82.341,318.048 81.595 C 318.953 80.848,319.862 80.082,320.067 79.891 C 320.273 79.701,321.195 78.937,322.117 78.195 C 323.039 77.452,324.184 76.480,324.662 76.034 C 328.104 72.821,330.743 72.322,332.843 74.489 L 334.012 75.695 334.108 169.060 C 334.161 220.411,334.116 262.925,334.007 263.536 C 333.638 265.603,332.010 267.006,329.981 267.006 C 327.975 267.006,327.787 266.899,323.494 263.303 C 319.467 259.929,319.600 260.040,315.691 256.777 C 313.825 255.219,312.125 253.791,311.912 253.605 C 311.527 253.266,308.631 250.852,300.594 244.168 L 296.353 240.642 296.183 252.552 C 296.003 265.207,296.012 265.137,294.289 266.425 C 293.189 267.247,290.786 267.262,289.536 266.454 C 288.661 265.888,272.177 252.277,271.756 251.772 C 271.662 251.661,270.823 250.962,269.890 250.219 C 268.957 249.477,268.025 248.713,267.820 248.523 C 267.614 248.332,266.705 247.566,265.800 246.819 C 264.895 246.073,263.527 244.928,262.761 244.275 C 261.994 243.622,260.694 242.553,259.873 241.900 C 259.051 241.247,257.839 240.241,257.179 239.664 C 256.519 239.087,253.155 236.266,249.703 233.395 C 242.306 227.243,242.758 227.619,239.504 224.886 C 238.093 223.701,236.197 222.120,235.290 221.374 C 234.384 220.628,232.471 219.025,231.039 217.812 C 229.608 216.599,226.466 213.978,224.057 211.987 C 221.648 209.997,219.372 208.087,218.999 207.743 C 218.626 207.399,217.465 206.432,216.419 205.594 C 213.827 203.518,205.697 196.742,202.685 194.148 C 199.658 191.540,200.277 191.461,196.046 194.996 C 194.091 196.628,191.750 198.575,190.844 199.321 C 189.938 200.068,188.567 201.213,187.797 201.866 C 187.027 202.519,185.653 203.664,184.744 204.411 C 183.834 205.157,182.457 206.302,181.682 206.955 C 180.908 207.608,179.543 208.753,178.649 209.500 C 177.755 210.246,176.469 211.331,175.790 211.911 C 175.110 212.490,171.578 215.437,167.939 218.459 C 160.786 224.399,159.077 225.823,156.910 227.651 C 156.135 228.304,154.758 229.449,153.848 230.195 C 152.939 230.941,151.566 232.087,150.798 232.740 C 150.029 233.393,148.940 234.309,148.378 234.775 C 144.217 238.226,135.490 245.512,133.342 247.328 C 131.908 248.541,129.991 250.144,129.081 250.891 C 128.172 251.637,126.734 252.836,125.886 253.554 C 125.037 254.273,124.037 255.112,123.664 255.420 C 123.291 255.729,120.721 257.889,117.953 260.221 C 108.929 267.824,107.684 268.367,105.028 265.863 L 103.817 264.721 103.817 252.632 C 103.817 245.983,103.721 240.543,103.603 240.543 C 103.486 240.543,102.826 241.039,102.137 241.645 C 101.449 242.252,100.514 243.055,100.061 243.431 C 99.607 243.806,95.573 247.164,91.094 250.892 C 86.616 254.621,82.646 257.924,82.273 258.233 C 81.900 258.542,80.895 259.383,80.041 260.102 C 79.186 260.820,77.812 261.967,76.987 262.649 C 76.163 263.332,74.908 264.389,74.199 264.997 C 70.855 267.866,67.583 267.715,65.981 264.618 C 65.248 263.200,65.217 77.621,65.950 75.867 C 66.956 73.459,69.399 72.584,71.925 73.728 M74.640 170.144 L 74.640 253.103 79.135 249.351 C 81.607 247.288,85.139 244.347,86.982 242.817 C 88.826 241.286,91.509 239.042,92.945 237.829 C 96.329 234.971,97.625 233.892,101.000 231.121 L 103.782 228.838 103.777 170.144 L 103.772 111.450 101.165 109.326 C 99.731 108.158,98.076 106.784,97.488 106.273 C 96.899 105.762,95.219 104.352,93.756 103.141 C 92.292 101.929,90.920 100.784,90.708 100.596 C 90.495 100.408,88.816 99.002,86.976 97.472 C 85.136 95.941,81.607 93.001,79.135 90.937 L 74.640 87.185 74.640 170.144 M112.299 170.144 C 112.299 249.065,112.328 253.104,112.892 252.797 C 113.219 252.619,114.860 251.302,116.539 249.870 C 118.219 248.437,119.898 247.010,120.271 246.699 C 121.432 245.729,137.197 232.606,137.913 232.013 C 138.287 231.704,139.290 230.863,140.143 230.144 C 140.996 229.426,142.432 228.227,143.335 227.481 C 144.238 226.735,145.693 225.513,146.570 224.767 C 147.447 224.020,148.530 223.110,148.976 222.743 C 149.423 222.377,152.536 219.781,155.895 216.976 C 159.254 214.170,162.307 211.623,162.680 211.315 C 163.053 211.007,164.058 210.167,164.912 209.449 C 165.767 208.730,167.210 207.532,168.119 206.785 C 169.029 206.039,170.467 204.840,171.315 204.122 C 172.164 203.403,173.164 202.560,173.537 202.249 C 179.197 197.518,186.104 191.758,188.763 189.551 C 190.607 188.021,193.355 185.723,194.870 184.445 C 196.385 183.167,197.930 181.868,198.304 181.559 C 202.750 177.879,209.262 172.426,209.632 172.074 C 209.891 171.826,210.464 171.388,210.904 171.100 C 211.979 170.395,211.913 169.917,210.608 168.952 C 210.005 168.506,207.143 166.150,204.247 163.716 C 201.351 161.282,198.677 159.038,198.304 158.729 C 197.930 158.421,196.931 157.580,196.082 156.862 C 195.234 156.143,193.795 154.945,192.886 154.198 C 191.977 153.452,190.599 152.307,189.825 151.654 C 189.050 151.001,187.740 149.904,186.914 149.216 C 178.486 142.201,174.187 138.602,174.046 138.441 C 173.953 138.336,173.342 137.841,172.689 137.342 C 172.036 136.843,171.097 136.081,170.602 135.648 C 170.108 135.214,168.974 134.249,168.082 133.503 C 167.190 132.757,165.763 131.558,164.910 130.840 C 164.057 130.121,163.053 129.280,162.680 128.971 C 157.653 124.807,149.982 118.387,149.601 118.024 C 149.330 117.767,148.575 117.148,147.922 116.649 C 147.269 116.149,146.330 115.385,145.835 114.952 C 145.341 114.519,144.207 113.554,143.315 112.807 C 142.423 112.061,141.060 110.916,140.286 110.263 C 139.511 109.610,138.133 108.465,137.224 107.718 C 136.315 106.972,134.877 105.773,134.028 105.055 C 133.179 104.336,132.177 103.497,131.801 103.189 C 131.185 102.685,121.937 94.987,120.271 93.592 C 119.898 93.279,118.219 91.851,116.539 90.419 C 114.860 88.986,113.219 87.669,112.892 87.492 C 112.328 87.184,112.299 91.223,112.299 170.144 M284.987 88.921 C 283.774 89.923,282.706 90.823,282.612 90.922 C 282.519 91.022,280.775 92.475,278.736 94.152 C 276.697 95.829,274.407 97.751,273.647 98.424 C 272.508 99.431,264.152 106.413,257.523 111.897 C 256.692 112.584,255.318 113.735,254.469 114.453 C 253.621 115.172,252.572 116.058,252.138 116.423 C 250.546 117.764,234.218 131.387,232.756 132.595 C 231.925 133.281,230.551 134.430,229.702 135.149 C 228.854 135.867,227.778 136.778,227.311 137.173 C 226.845 137.568,223.715 140.184,220.356 142.985 C 216.997 145.787,214.079 148.234,213.870 148.424 C 213.661 148.615,212.461 149.610,211.202 150.636 C 209.943 151.662,208.435 152.925,207.849 153.443 L 206.785 154.383 207.792 155.136 C 208.345 155.550,209.963 156.882,211.387 158.097 C 215.882 161.931,218.530 164.037,218.855 164.037 C 219.154 164.037,224.431 159.790,230.024 155.047 C 231.454 153.834,233.368 152.231,234.277 151.484 C 235.186 150.738,236.625 149.539,237.473 148.821 C 238.322 148.102,239.321 147.261,239.695 146.950 C 240.068 146.640,244.019 143.335,248.474 139.605 C 252.929 135.876,257.052 132.449,257.634 131.989 C 258.217 131.530,259.775 130.232,261.097 129.106 C 264.497 126.207,264.908 125.865,267.896 123.449 C 269.366 122.261,270.645 121.202,270.738 121.096 C 270.975 120.827,280.975 112.430,283.083 110.731 C 284.037 109.962,285.396 108.817,286.103 108.186 L 287.388 107.040 287.290 97.070 L 287.193 87.100 284.987 88.921 M324.138 87.956 C 323.601 88.376,322.920 88.948,322.623 89.228 C 321.983 89.832,321.039 90.617,318.745 92.452 C 317.812 93.198,316.972 93.896,316.879 94.003 C 316.785 94.110,314.724 95.854,312.299 97.879 C 309.873 99.903,307.348 102.029,306.688 102.603 C 306.029 103.177,304.822 104.182,304.007 104.835 C 302.232 106.257,299.362 108.654,292.635 114.334 C 289.872 116.667,287.136 118.951,286.554 119.410 C 285.972 119.869,284.415 121.167,283.093 122.294 C 281.772 123.421,280.321 124.650,279.870 125.025 C 279.419 125.401,275.386 128.759,270.908 132.487 C 266.429 136.215,262.460 139.519,262.087 139.828 C 261.713 140.137,260.710 140.978,259.857 141.696 C 259.004 142.415,257.577 143.613,256.685 144.360 C 255.793 145.106,254.659 146.071,254.165 146.504 C 253.670 146.938,252.731 147.700,252.078 148.199 C 251.425 148.698,250.814 149.189,250.721 149.291 C 250.488 149.547,246.147 153.222,244.122 154.877 C 243.209 155.623,241.833 156.768,241.062 157.422 C 240.292 158.075,238.918 159.220,238.009 159.966 C 235.550 161.985,233.355 163.827,232.400 164.675 C 231.934 165.089,230.293 166.475,228.753 167.755 C 227.214 169.035,225.954 170.110,225.954 170.144 C 225.954 170.178,227.214 171.253,228.753 172.533 C 230.293 173.813,231.934 175.200,232.400 175.614 C 233.145 176.275,235.230 178.034,237.320 179.765 C 242.330 183.916,250.018 190.350,250.400 190.712 C 250.670 190.969,251.655 191.787,252.587 192.529 C 253.520 193.272,254.455 194.035,254.665 194.225 C 254.874 194.416,255.779 195.182,256.676 195.929 C 257.573 196.675,259.004 197.874,259.857 198.592 C 260.710 199.311,261.714 200.150,262.088 200.458 C 264.051 202.073,277.527 213.330,278.567 214.224 C 279.235 214.798,280.456 215.826,281.282 216.509 C 285.367 219.890,291.962 225.420,292.112 225.591 C 292.205 225.698,293.045 226.393,293.978 227.136 C 294.911 227.879,296.209 228.974,296.862 229.568 C 297.515 230.163,298.507 231.005,299.067 231.440 C 299.955 232.130,314.926 244.586,317.218 246.542 C 317.684 246.940,319.440 248.437,321.120 249.870 C 322.799 251.302,324.440 252.619,324.767 252.797 C 325.331 253.104,325.360 249.066,325.360 170.156 C 325.360 124.526,325.305 87.193,325.237 87.193 C 325.168 87.193,324.674 87.536,324.138 87.956 M213.571 180.362 C 210.772 182.708,208.100 184.923,207.634 185.283 L 206.785 185.939 208.142 187.102 C 208.889 187.742,213.011 191.193,217.303 194.771 C 225.316 201.452,226.550 202.485,231.046 206.277 C 232.485 207.489,236.698 210.993,240.410 214.062 C 244.122 217.132,247.771 220.185,248.520 220.848 C 249.269 221.510,250.630 222.663,251.546 223.410 C 252.462 224.156,254.384 225.759,255.817 226.972 C 257.250 228.185,260.534 230.933,263.114 233.079 C 269.838 238.671,269.584 238.459,272.579 241.001 C 274.086 242.279,275.626 243.576,276.001 243.884 C 276.377 244.192,278.896 246.286,281.599 248.537 C 284.302 250.788,286.705 252.744,286.938 252.883 C 287.273 253.083,287.362 251.045,287.362 243.137 L 287.362 233.139 284.768 230.988 C 283.340 229.806,281.089 227.916,279.763 226.789 C 278.438 225.662,276.878 224.365,276.296 223.905 C 275.714 223.446,272.966 221.162,270.189 218.830 C 267.412 216.498,264.835 214.338,264.461 214.029 C 264.088 213.721,263.089 212.882,262.240 212.163 C 261.391 211.445,259.953 210.246,259.044 209.500 C 258.135 208.753,256.218 207.150,254.783 205.937 C 252.635 204.121,243.909 196.835,239.748 193.384 C 239.185 192.918,238.096 192.002,237.328 191.349 C 236.559 190.696,235.186 189.550,234.277 188.804 C 233.368 188.058,231.989 186.913,231.213 186.260 C 230.437 185.606,229.065 184.461,228.163 183.715 C 227.262 182.969,224.832 180.946,222.762 179.221 C 220.692 177.496,218.923 176.087,218.830 176.090 C 218.736 176.093,216.370 178.016,213.571 180.362 " stroke="none" fill="#040404" fill-rule="evenodd"></path><path id="path2" d="M326.802 74.278 C 326.047 74.825,325.312 75.474,325.170 75.720 C 325.028 75.965,325.280 75.839,325.730 75.439 C 326.180 75.038,327.082 74.390,327.735 73.998 C 328.388 73.606,328.755 73.284,328.550 73.284 C 328.344 73.283,327.558 73.730,326.802 74.278 M331.128 73.521 C 331.408 73.622,332.171 74.182,332.824 74.766 L 334.012 75.827 332.843 74.555 C 332.200 73.855,331.436 73.294,331.146 73.309 C 330.690 73.332,330.688 73.361,331.128 73.521 M294.656 74.619 L 295.674 75.701 295.852 87.808 L 296.030 99.915 296.107 88.093 C 296.189 75.338,296.155 75.062,294.363 73.975 C 293.853 73.667,293.940 73.857,294.656 74.619 M72.295 74.046 C 72.373 74.092,72.971 74.589,73.623 75.148 L 74.809 76.166 73.813 75.064 C 73.265 74.457,72.667 73.961,72.484 73.961 C 72.301 73.961,72.216 73.999,72.295 74.046 M65.693 76.421 C 65.397 77.527,65.442 263.708,65.739 264.175 C 65.876 264.390,65.988 222.062,65.988 170.112 C 65.988 118.162,65.968 75.657,65.943 75.657 C 65.918 75.657,65.806 76.001,65.693 76.421 M334.009 169.975 C 334.009 221.569,334.049 242.676,334.097 216.879 C 334.145 191.081,334.145 148.868,334.097 123.070 C 334.049 97.273,334.009 118.380,334.009 169.975 M321.185 78.891 C 320.662 79.352,320.368 79.729,320.533 79.729 C 320.697 79.729,321.190 79.347,321.628 78.880 C 322.642 77.801,322.418 77.807,321.185 78.891 M120.934 82.856 C 121.876 83.736,122.766 84.462,122.913 84.468 C 123.059 84.474,122.601 83.990,121.895 83.394 C 119.592 81.449,119.187 81.223,120.934 82.856 M274.131 86.548 L 272.265 88.270 274.215 86.672 C 275.928 85.270,276.394 84.808,276.081 84.821 C 276.035 84.823,275.157 85.600,274.131 86.548 M124.852 85.942 C 124.852 86.000,125.348 86.496,125.954 87.044 L 127.057 88.041 126.060 86.938 C 125.132 85.910,124.852 85.680,124.852 85.942 M287.023 87.036 C 286.731 87.395,286.695 87.554,286.938 87.407 C 287.837 86.867,287.516 106.819,286.608 107.866 L 285.855 108.736 286.783 107.875 L 287.712 107.014 287.622 96.712 C 287.541 87.493,287.478 86.475,287.023 87.036 M74.384 170.059 C 74.338 215.916,74.415 253.429,74.555 253.422 C 74.695 253.415,75.725 252.556,76.845 251.515 C 78.842 249.656,78.847 249.647,77.100 251.050 C 76.121 251.836,75.205 252.656,75.065 252.872 C 74.924 253.088,74.732 215.785,74.639 169.975 L 74.468 86.684 74.384 170.059 M324.819 87.245 C 324.669 87.488,324.726 87.545,324.969 87.395 C 325.264 87.212,325.360 107.498,325.360 170.144 C 325.360 232.790,325.264 253.077,324.969 252.894 C 324.726 252.744,324.669 252.801,324.819 253.043 C 324.952 253.259,325.205 253.435,325.380 253.435 C 325.579 253.435,325.700 221.963,325.700 170.144 C 325.700 118.326,325.579 86.853,325.380 86.853 C 325.205 86.853,324.952 87.030,324.819 87.245 M74.979 87.299 C 74.979 87.357,75.475 87.853,76.081 88.401 L 77.184 89.398 76.188 88.295 C 75.259 87.267,74.979 87.037,74.979 87.299 M117.048 90.691 C 117.048 90.750,117.545 91.246,118.151 91.794 L 119.254 92.791 118.257 91.688 C 117.328 90.660,117.048 90.429,117.048 90.691 M130.958 91.031 C 130.958 91.089,131.455 91.585,132.061 92.133 L 133.164 93.130 132.167 92.027 C 131.238 90.999,130.958 90.769,130.958 91.031 M319.228 91.858 L 318.405 92.791 319.423 91.942 C 319.983 91.476,320.505 91.056,320.582 91.009 C 320.660 90.963,320.572 90.925,320.387 90.925 C 320.202 90.925,319.680 91.344,319.228 91.858 M97.185 94.731 C 98.127 95.611,99.017 96.336,99.164 96.342 C 99.310 96.348,98.852 95.865,98.146 95.269 C 95.843 93.324,95.438 93.097,97.185 94.731 M121.459 94.414 C 121.459 94.502,122.331 95.318,123.396 96.227 C 124.461 97.136,125.224 97.703,125.091 97.486 C 124.800 97.012,121.459 94.186,121.459 94.414 M298.049 98.260 L 296.353 99.814 298.134 98.391 C 299.676 97.159,300.165 96.672,299.830 96.699 C 299.784 96.703,298.982 97.405,298.049 98.260 M271.925 99.631 C 270.035 101.390,270.013 101.426,271.621 100.137 C 273.196 98.874,274.406 97.690,274.087 97.723 C 274.018 97.730,273.045 98.589,271.925 99.631 M306.510 102.545 L 305.513 103.647 306.616 102.651 C 307.222 102.103,307.718 101.606,307.718 101.548 C 307.718 101.286,307.438 101.517,306.510 102.545 M143.851 101.888 C 143.851 101.981,144.614 102.696,145.547 103.478 C 146.480 104.259,147.243 104.821,147.243 104.728 C 147.243 104.635,146.480 103.919,145.547 103.138 C 144.614 102.357,143.851 101.794,143.851 101.888 M249.703 106.919 L 247.837 108.642 249.617 107.216 C 251.179 105.966,252.004 105.151,251.674 105.185 C 251.616 105.191,250.729 105.971,249.703 106.919 M149.618 106.637 C 149.618 106.696,150.115 107.192,150.721 107.740 L 151.824 108.736 150.827 107.634 C 149.898 106.606,149.618 106.375,149.618 106.637 M99.746 107.994 C 99.746 108.053,100.242 108.549,100.848 109.097 L 101.951 110.093 100.954 108.991 C 100.025 107.963,99.746 107.732,99.746 107.994 M295.335 111.831 L 293.639 113.385 295.420 111.962 C 296.962 110.730,297.451 110.242,297.116 110.270 C 297.070 110.274,296.268 110.976,295.335 111.831 M244.171 111.461 C 243.648 111.922,243.354 112.299,243.518 112.299 C 243.683 112.299,244.176 111.917,244.614 111.450 C 245.628 110.371,245.404 110.377,244.171 111.461 M281.416 112.155 L 279.729 113.708 281.510 112.271 C 283.108 110.983,283.493 110.602,283.197 110.602 C 283.145 110.602,282.344 111.301,281.416 112.155 M155.725 111.726 C 155.725 111.785,156.221 112.281,156.828 112.829 L 157.930 113.825 156.934 112.723 C 156.005 111.695,155.725 111.464,155.725 111.726 M254.262 114.419 L 253.265 115.522 254.368 114.525 C 254.975 113.977,255.471 113.481,255.471 113.423 C 255.471 113.160,255.191 113.391,254.262 114.419 M146.638 115.615 C 148.571 117.248,149.173 117.557,147.583 116.101 C 146.743 115.332,145.936 114.696,145.790 114.688 C 145.643 114.680,146.025 115.097,146.638 115.615 M238.316 116.455 L 237.320 117.557 238.422 116.561 C 239.029 116.013,239.525 115.517,239.525 115.458 C 239.525 115.196,239.245 115.427,238.316 116.455 M248.516 119.110 C 245.627 121.591,244.472 122.791,246.819 120.873 C 249.169 118.953,251.263 117.077,251.060 117.074 C 250.967 117.072,249.822 117.989,248.516 119.110 M287.850 118.151 L 286.853 119.254 287.956 118.257 C 288.562 117.709,289.059 117.213,289.059 117.155 C 289.059 116.892,288.779 117.123,287.850 118.151 M273.282 118.956 L 271.586 120.510 273.367 119.087 C 274.909 117.855,275.398 117.367,275.064 117.395 C 275.017 117.398,274.215 118.101,273.282 118.956 M166.243 120.538 C 166.243 120.626,167.114 121.442,168.180 122.351 C 169.245 123.260,170.008 123.826,169.875 123.610 C 169.584 123.136,166.243 120.310,166.243 120.538 M232.209 121.544 L 231.213 122.646 232.316 121.650 C 232.922 121.102,233.418 120.606,233.418 120.547 C 233.418 120.285,233.138 120.516,232.209 121.544 M281.743 123.240 L 280.746 124.343 281.849 123.346 C 282.455 122.798,282.952 122.302,282.952 122.244 C 282.952 121.981,282.672 122.212,281.743 123.240 M267.176 124.045 L 265.479 125.599 267.260 124.176 C 268.803 122.944,269.291 122.456,268.957 122.484 C 268.910 122.487,268.109 123.190,267.176 124.045 M276.998 127.152 C 275.251 128.786,275.656 128.559,277.959 126.614 C 278.665 126.018,279.123 125.535,278.977 125.541 C 278.831 125.547,277.940 126.272,276.998 127.152 M262.065 128.329 L 261.069 129.432 262.171 128.435 C 262.778 127.887,263.274 127.391,263.274 127.333 C 263.274 127.071,262.994 127.301,262.065 128.329 M220.588 131.138 C 219.409 132.159,218.569 132.988,218.722 132.981 C 219.019 132.967,223.185 129.278,222.901 129.280 C 222.807 129.280,221.767 130.116,220.588 131.138 M255.958 133.418 L 254.962 134.521 256.064 133.524 C 256.671 132.976,257.167 132.480,257.167 132.422 C 257.167 132.160,256.887 132.390,255.958 133.418 M171.405 136.310 C 173.338 137.943,173.940 138.253,172.349 136.796 C 171.510 136.027,170.703 135.391,170.556 135.383 C 170.410 135.375,170.792 135.793,171.405 136.310 M213.549 137.150 L 212.553 138.253 213.656 137.256 C 214.262 136.708,214.758 136.212,214.758 136.154 C 214.758 135.892,214.478 136.122,213.549 137.150 M207.443 142.239 L 206.446 143.342 207.549 142.345 C 208.155 141.797,208.651 141.301,208.651 141.243 C 208.651 140.981,208.371 141.211,207.443 142.239 M242.409 144.740 L 240.712 146.294 242.494 144.871 C 244.036 143.639,244.525 143.152,244.190 143.179 C 244.143 143.183,243.342 143.885,242.409 144.740 M198.425 147.498 C 199.074 148.104,199.765 148.601,199.962 148.601 C 200.159 148.601,199.943 148.348,199.482 148.039 C 199.020 147.730,198.329 147.233,197.945 146.936 C 197.561 146.639,197.777 146.891,198.425 147.498 M252.417 147.653 C 250.827 149.109,251.429 148.800,253.362 147.167 C 253.975 146.649,254.357 146.232,254.210 146.240 C 254.064 146.248,253.257 146.884,252.417 147.653 M237.298 149.025 L 236.302 150.127 237.405 149.131 C 238.011 148.583,238.507 148.087,238.507 148.028 C 238.507 147.766,238.227 147.997,237.298 149.025 M231.192 154.114 L 230.195 155.216 231.298 154.220 C 231.904 153.672,232.400 153.176,232.400 153.117 C 232.400 152.855,232.120 153.086,231.192 154.114 M208.991 156.171 C 208.991 156.229,209.487 156.725,210.093 157.273 L 211.196 158.270 210.199 157.167 C 209.271 156.139,208.991 155.909,208.991 156.171 M225.085 159.203 L 224.088 160.305 225.191 159.309 C 225.797 158.761,226.293 158.265,226.293 158.206 C 226.293 157.944,226.014 158.175,225.085 159.203 M220.266 163.083 C 218.836 164.289,218.811 164.296,218.061 163.674 L 217.303 163.045 218.047 163.852 L 218.792 164.659 220.337 163.392 C 221.187 162.696,221.883 162.060,221.883 161.979 C 221.883 161.737,221.774 161.812,220.266 163.083 M228.232 172.416 C 230.536 174.361,230.941 174.587,229.193 172.954 C 228.251 172.074,227.361 171.348,227.215 171.342 C 227.068 171.336,227.526 171.820,228.232 172.416 M217.949 176.506 L 217.303 177.269 218.066 176.623 C 218.817 175.987,218.842 175.987,219.593 176.623 L 220.356 177.269 219.710 176.506 C 219.354 176.086,218.958 175.742,218.830 175.742 C 218.701 175.742,218.305 176.086,217.949 176.506 M201.018 179.346 L 199.321 180.900 201.103 179.477 C 202.645 178.245,203.134 177.757,202.799 177.785 C 202.752 177.789,201.951 178.491,201.018 179.346 M195.907 183.630 L 194.911 184.733 196.014 183.736 C 196.620 183.188,197.116 182.692,197.116 182.634 C 197.116 182.372,196.836 182.602,195.907 183.630 M230.365 185.348 C 230.365 185.406,230.861 185.902,231.467 186.451 L 232.570 187.447 231.574 186.344 C 230.645 185.317,230.365 185.086,230.365 185.348 M236.472 190.437 C 236.472 190.495,236.968 190.992,237.574 191.540 L 238.677 192.536 237.680 191.433 C 236.752 190.406,236.472 190.175,236.472 190.437 M198.425 192.791 C 197.777 193.397,197.561 193.650,197.945 193.352 C 198.329 193.055,199.020 192.559,199.482 192.250 C 199.943 191.941,200.159 191.688,199.962 191.688 C 199.765 191.688,199.074 192.184,198.425 192.791 M253.170 193.226 C 253.678 193.760,254.154 194.128,254.228 194.045 C 254.303 193.961,253.887 193.525,253.306 193.074 L 252.248 192.255 253.170 193.226 M202.884 194.169 C 202.884 194.227,203.380 194.723,203.986 195.272 L 205.089 196.268 204.093 195.165 C 203.164 194.138,202.884 193.907,202.884 194.169 M242.070 195.249 C 242.816 195.938,244.190 197.113,245.123 197.860 C 246.779 199.185,246.787 199.188,245.462 197.965 C 244.716 197.276,243.342 196.102,242.409 195.355 C 240.753 194.030,240.745 194.027,242.070 195.249 M177.587 198.897 L 176.590 200.000 177.693 199.004 C 178.299 198.455,178.796 197.959,178.796 197.901 C 178.796 197.639,178.516 197.870,177.587 198.897 M249.025 200.954 C 249.025 201.013,249.521 201.509,250.127 202.057 L 251.230 203.053 250.233 201.951 C 249.305 200.923,249.025 200.692,249.025 200.954 M213.027 202.646 C 213.575 203.337,216.794 206.075,216.794 205.850 C 216.794 205.767,215.840 204.878,214.673 203.874 C 213.507 202.870,212.766 202.318,213.027 202.646 M228.668 204.347 C 228.668 204.405,229.165 204.902,229.771 205.450 L 230.874 206.446 229.877 205.344 C 228.948 204.316,228.668 204.085,228.668 204.347 M255.131 206.043 C 255.131 206.102,255.628 206.598,256.234 207.146 L 257.337 208.142 256.340 207.040 C 255.411 206.012,255.131 205.781,255.131 206.043 M269.042 206.373 C 269.042 206.461,269.913 207.277,270.979 208.186 C 272.044 209.095,272.807 209.662,272.674 209.445 C 272.383 208.971,269.042 206.146,269.042 206.373 M219.268 207.857 C 219.560 208.331,222.901 211.157,222.901 210.929 C 222.901 210.841,222.029 210.026,220.964 209.117 C 219.898 208.208,219.136 207.641,219.268 207.857 M261.238 211.132 C 261.238 211.191,261.735 211.687,262.341 212.235 L 263.444 213.232 262.447 212.129 C 261.518 211.101,261.238 210.870,261.238 211.132 M174.199 212.988 C 172.452 214.621,172.857 214.394,175.160 212.450 C 175.866 211.853,176.324 211.370,176.178 211.376 C 176.032 211.382,175.141 212.107,174.199 212.988 M240.882 214.525 C 240.882 214.584,241.378 215.080,241.985 215.628 L 243.087 216.624 242.091 215.522 C 241.162 214.494,240.882 214.263,240.882 214.525 M265.649 214.865 C 265.649 214.958,266.412 215.673,267.345 216.455 C 268.278 217.236,269.042 217.799,269.042 217.705 C 269.042 217.612,268.278 216.896,267.345 216.115 C 266.412 215.334,265.649 214.771,265.649 214.865 M231.383 217.918 C 231.383 217.976,231.879 218.472,232.485 219.020 L 233.588 220.017 232.591 218.914 C 231.662 217.887,231.383 217.656,231.383 217.918 M245.293 218.238 C 245.293 218.321,246.247 219.210,247.413 220.214 C 248.579 221.218,249.320 221.771,249.059 221.442 C 248.511 220.751,245.293 218.014,245.293 218.238 M151.993 220.235 L 150.127 221.958 151.907 220.533 C 153.469 219.283,154.294 218.467,153.964 218.501 C 153.906 218.507,153.020 219.287,151.993 220.235 M273.791 221.650 C 273.791 221.708,274.288 222.204,274.894 222.752 L 275.997 223.749 275.000 222.646 C 274.071 221.619,273.791 221.388,273.791 221.650 M147.202 224.284 L 145.717 225.667 147.328 224.382 C 148.215 223.675,148.940 223.052,148.940 222.999 C 148.940 222.737,148.569 223.011,147.202 224.284 M237.489 223.007 C 237.489 223.065,237.986 223.561,238.592 224.110 L 239.695 225.106 238.698 224.003 C 237.769 222.976,237.489 222.745,237.489 223.007 M253.435 225.043 C 253.435 225.101,253.931 225.597,254.538 226.145 L 255.640 227.142 254.644 226.039 C 253.715 225.011,253.435 224.780,253.435 225.043 M279.898 226.739 C 279.898 226.797,280.394 227.293,281.001 227.842 L 282.103 228.838 281.107 227.735 C 280.178 226.708,279.898 226.477,279.898 226.739 M294.561 227.831 C 295.069 228.365,295.545 228.734,295.619 228.650 C 295.694 228.567,295.278 228.130,294.697 227.680 L 293.639 226.861 294.561 227.831 M243.287 228.075 C 243.366 228.121,243.964 228.617,244.616 229.177 L 245.802 230.195 244.805 229.092 C 244.257 228.486,243.659 227.990,243.476 227.990 C 243.293 227.990,243.208 228.028,243.287 228.075 M259.542 230.132 C 259.542 230.190,260.038 230.686,260.645 231.234 L 261.747 232.231 260.751 231.128 C 259.822 230.100,259.542 229.869,259.542 230.132 M99.406 232.449 L 97.540 234.172 99.320 232.747 C 100.882 231.496,101.707 230.681,101.377 230.715 C 101.319 230.721,100.433 231.501,99.406 232.449 M150.445 232.824 L 149.449 233.927 150.551 232.931 C 151.579 232.002,151.810 231.722,151.548 231.722 C 151.489 231.722,150.993 232.218,150.445 232.824 M286.608 232.422 C 287.516 233.470,287.837 253.421,286.938 252.881 C 286.695 252.735,286.731 252.893,287.023 253.253 C 287.478 253.813,287.541 252.795,287.622 243.577 L 287.712 233.274 286.783 232.413 L 285.855 231.552 286.608 232.422 M265.975 235.695 C 267.009 236.667,267.969 237.469,268.110 237.476 C 268.250 237.483,267.716 236.924,266.922 236.233 C 264.486 234.111,263.996 233.833,265.975 235.695 M94.126 236.896 L 93.130 237.998 94.232 237.002 C 95.260 236.073,95.491 235.793,95.229 235.793 C 95.170 235.793,94.674 236.289,94.126 236.896 M143.172 238.895 L 141.306 240.618 143.086 239.193 C 144.648 237.942,145.473 237.127,145.143 237.161 C 145.085 237.167,144.198 237.947,143.172 238.895 M256.149 238.613 C 256.149 238.672,256.645 239.168,257.252 239.716 L 258.355 240.712 257.358 239.610 C 256.429 238.582,256.149 238.351,256.149 238.613 M101.929 241.645 L 100.933 242.748 102.036 241.752 C 103.063 240.823,103.294 240.543,103.032 240.543 C 102.974 240.543,102.478 241.039,101.929 241.645 M295.997 252.248 C 295.997 258.779,296.042 261.402,296.098 258.078 C 296.154 254.754,296.153 249.411,296.098 246.204 C 296.042 242.997,295.997 245.717,295.997 252.248 M312.229 242.463 C 312.520 242.937,315.861 245.763,315.861 245.535 C 315.861 245.447,314.989 244.631,313.924 243.722 C 312.859 242.813,312.096 242.247,312.229 242.463 M122.705 244.627 C 121.617 245.553,120.854 246.306,121.008 246.300 C 121.306 246.288,125.141 242.938,124.852 242.942 C 124.758 242.943,123.792 243.702,122.705 244.627 M97.185 245.558 C 95.438 247.191,95.843 246.964,98.146 245.020 C 98.852 244.423,99.310 243.940,99.164 243.946 C 99.017 243.952,98.127 244.677,97.185 245.558 M131.785 248.431 L 130.789 249.534 131.891 248.537 C 132.919 247.608,133.150 247.328,132.888 247.328 C 132.830 247.328,132.333 247.824,131.785 248.431 M117.875 248.770 L 116.879 249.873 117.981 248.876 C 119.009 247.947,119.240 247.668,118.978 247.668 C 118.919 247.668,118.423 248.164,117.875 248.770 M268.052 248.770 C 268.130 248.817,268.651 249.237,269.211 249.703 L 270.229 250.551 269.407 249.618 C 268.954 249.105,268.433 248.685,268.247 248.685 C 268.062 248.685,267.974 248.723,268.052 248.770 M308.397 250.488 C 308.397 250.546,308.893 251.042,309.500 251.590 L 310.602 252.587 309.606 251.484 C 308.677 250.457,308.397 250.226,308.397 250.488 M127.879 251.654 L 127.057 252.587 128.075 251.739 C 128.634 251.272,129.156 250.852,129.234 250.806 C 129.312 250.759,129.224 250.721,129.039 250.721 C 128.853 250.721,128.332 251.141,127.879 251.654 M125.678 253.520 L 124.682 254.623 125.785 253.626 C 126.391 253.078,126.887 252.582,126.887 252.523 C 126.887 252.261,126.607 252.492,125.678 253.520 M314.504 255.577 C 314.504 255.635,315.000 256.131,315.606 256.680 L 316.709 257.676 315.713 256.573 C 314.784 255.546,314.504 255.315,314.504 255.577 M120.611 257.717 L 118.914 259.272 120.696 257.848 C 122.238 256.616,122.726 256.129,122.392 256.156 C 122.345 256.160,121.544 256.863,120.611 257.717 M321.712 261.816 C 324.148 263.938,324.639 264.216,322.659 262.354 C 321.626 261.382,320.665 260.580,320.525 260.573 C 320.384 260.566,320.919 261.125,321.712 261.816 M113.125 264.037 L 112.129 265.140 113.232 264.143 C 114.259 263.215,114.490 262.935,114.228 262.935 C 114.170 262.935,113.673 263.431,113.125 264.037 M103.827 264.188 C 103.821 264.411,104.160 264.953,104.580 265.392 C 105.000 265.832,105.174 265.955,104.967 265.665 C 104.760 265.376,104.421 264.835,104.214 264.461 C 104.007 264.088,103.833 263.965,103.827 264.188 M73.179 265.490 C 71.931 266.588,72.377 266.578,73.684 265.479 C 74.238 265.013,74.565 264.636,74.411 264.642 C 74.257 264.648,73.702 265.029,73.179 265.490 M67.249 266.073 C 67.774 266.586,68.393 267.001,68.623 266.996 C 68.853 266.990,68.736 266.816,68.363 266.610 C 67.990 266.404,67.372 265.988,66.990 265.687 C 66.607 265.386,66.724 265.560,67.249 266.073 " stroke="none" fill="#4d4d4d" fill-rule="evenodd"></path><path id="path3" d="M72.095 74.179 C 73.822 75.712,74.459 76.159,73.793 75.371 C 73.423 74.934,72.813 74.419,72.438 74.227 C 72.063 74.035,71.908 74.013,72.095 74.179 M332.480 74.812 C 333.831 76.439,333.945 76.544,333.576 75.823 C 333.384 75.448,332.869 74.838,332.432 74.469 C 331.665 73.820,331.667 73.832,332.480 74.812 M295.585 87.936 C 295.499 100.939,295.544 101.271,297.151 99.542 L 298.049 98.577 297.179 99.331 C 296.701 99.746,296.206 100.085,296.081 100.085 C 295.955 100.085,295.810 94.627,295.759 87.956 L 295.665 75.827 295.585 87.936 M103.969 88.210 C 103.969 94.648,104.015 97.282,104.071 94.063 C 104.126 90.844,104.126 85.577,104.071 82.358 C 104.015 79.139,103.969 81.773,103.969 88.210 M65.986 170.314 C 65.986 221.722,66.025 242.752,66.073 217.048 C 66.121 191.344,66.121 149.283,66.073 123.579 C 66.025 97.875,65.986 118.906,65.986 170.314 M287.164 86.561 C 287.010 86.809,287.065 86.867,287.310 86.716 C 287.603 86.535,287.701 89.067,287.701 96.741 L 287.701 107.008 286.599 108.211 L 285.496 109.415 286.768 108.246 L 288.041 107.076 288.041 96.815 C 288.041 87.316,287.877 85.406,287.164 86.561 M73.961 170.370 C 73.961 216.491,74.038 254.150,74.132 254.056 C 74.410 253.777,74.494 86.514,74.215 86.514 C 74.075 86.514,73.961 124.249,73.961 170.370 M112.185 86.740 C 111.871 87.054,111.899 253.774,112.214 253.774 C 112.354 253.774,112.468 216.141,112.468 170.144 C 112.468 124.148,112.455 86.514,112.440 86.514 C 112.424 86.514,112.310 86.616,112.185 86.740 M103.983 170.144 C 103.983 202.612,104.023 215.845,104.071 199.549 C 104.120 183.254,104.120 156.689,104.071 140.516 C 104.022 124.343,103.983 137.676,103.983 170.144 M254.262 114.080 L 253.265 115.182 254.368 114.186 C 254.975 113.638,255.471 113.142,255.471 113.083 C 255.471 112.821,255.191 113.052,254.262 114.080 M284.118 120.865 L 283.121 121.968 284.224 120.971 C 284.830 120.423,285.327 119.927,285.327 119.869 C 285.327 119.607,285.047 119.837,284.118 120.865 M174.485 127.789 C 174.776 128.263,178.117 131.089,178.117 130.862 C 178.117 130.774,177.245 129.958,176.180 129.049 C 175.115 128.140,174.352 127.573,174.485 127.789 M260.899 129.650 L 259.033 131.373 260.813 129.948 C 262.374 128.697,263.200 127.882,262.870 127.916 C 262.812 127.922,261.925 128.702,260.899 129.650 M213.549 137.489 L 212.553 138.592 213.739 137.574 C 214.391 137.014,214.989 136.518,215.068 136.472 C 215.146 136.425,215.061 136.387,214.878 136.387 C 214.696 136.387,214.098 136.883,213.549 137.489 M188.030 149.799 C 188.538 150.333,189.014 150.702,189.088 150.618 C 189.163 150.535,188.747 150.098,188.166 149.647 L 187.108 148.828 188.030 149.799 M218.236 164.383 C 218.820 165.021,218.839 165.021,219.423 164.383 C 219.989 163.766,219.989 163.756,219.423 164.182 C 218.932 164.552,218.727 164.552,218.236 164.182 C 217.670 163.756,217.670 163.766,218.236 164.383 M217.949 176.166 L 217.303 176.930 218.060 176.289 C 218.716 175.734,218.896 175.711,219.417 176.119 C 219.962 176.547,219.974 176.536,219.551 175.997 C 218.945 175.224,218.727 175.247,217.949 176.166 M234.775 188.731 C 234.775 188.819,235.647 189.635,236.712 190.544 C 237.778 191.453,238.540 192.020,238.408 191.803 C 238.116 191.329,234.775 188.504,234.775 188.731 M206.715 197.001 C 207.007 197.475,210.348 200.300,210.348 200.073 C 210.348 199.985,209.476 199.169,208.411 198.260 C 207.345 197.351,206.582 196.784,206.715 197.001 M258.863 198.240 C 258.863 198.334,259.627 199.049,260.560 199.830 C 261.493 200.612,262.256 201.174,262.256 201.081 C 262.256 200.988,261.493 200.272,260.560 199.491 C 259.627 198.710,258.863 198.147,258.863 198.240 M182.188 205.971 L 180.322 207.693 182.273 206.096 C 183.985 204.693,184.451 204.231,184.139 204.245 C 184.092 204.247,183.215 205.023,182.188 205.971 M243.257 216.900 C 243.257 216.958,243.753 217.455,244.360 218.003 L 245.462 218.999 244.466 217.897 C 243.537 216.869,243.257 216.638,243.257 216.900 M238.412 223.587 C 239.012 224.217,239.561 224.663,239.631 224.580 C 239.701 224.496,239.210 223.981,238.539 223.434 L 237.320 222.441 238.412 223.587 M140.267 230.450 L 139.271 231.552 140.373 230.556 C 141.401 229.627,141.632 229.347,141.370 229.347 C 141.311 229.347,140.815 229.843,140.267 230.450 M285.917 231.552 L 287.720 233.249 287.711 243.531 C 287.704 251.216,287.602 253.753,287.310 253.572 C 287.065 253.421,287.010 253.479,287.164 253.727 C 287.877 254.882,288.041 252.972,288.041 243.473 L 288.041 233.212 286.938 232.206 C 286.332 231.652,285.448 230.897,284.974 230.528 C 284.500 230.158,284.925 230.619,285.917 231.552 M300.254 232.836 C 300.254 232.924,301.126 233.740,302.191 234.649 C 303.257 235.558,304.020 236.125,303.887 235.909 C 303.596 235.435,300.254 232.609,300.254 232.836 M92.256 238.762 L 91.433 239.695 92.451 238.846 C 93.011 238.380,93.533 237.960,93.610 237.913 C 93.688 237.867,93.600 237.829,93.415 237.829 C 93.230 237.829,92.708 238.249,92.256 238.762 M295.659 240.290 C 295.569 240.525,295.538 245.983,295.590 252.419 L 295.684 264.122 295.764 252.163 C 295.808 245.585,295.949 240.204,296.077 240.204 C 296.204 240.204,296.701 240.547,297.179 240.967 L 298.049 241.730 297.227 240.797 C 296.325 239.774,295.909 239.640,295.659 240.290 M103.969 252.078 C 103.969 258.516,104.015 261.149,104.071 257.930 C 104.126 254.712,104.126 249.444,104.071 246.226 C 104.015 243.007,103.969 245.640,103.969 252.078 M272.095 240.988 C 272.095 241.047,272.591 241.543,273.198 242.091 L 274.300 243.087 273.304 241.985 C 272.375 240.957,272.095 240.726,272.095 240.988 M80.407 259.236 L 78.541 260.959 80.492 259.361 C 82.204 257.959,82.670 257.496,82.358 257.510 C 82.311 257.512,81.433 258.289,80.407 259.236 M72.943 265.361 C 72.290 265.933,72.063 266.247,72.438 266.057 C 73.058 265.743,74.594 264.273,74.268 264.306 C 74.192 264.313,73.596 264.788,72.943 265.361 " stroke="none" fill="#848484" fill-rule="evenodd"></path><path id="path4" d="" stroke="none" fill="#7c7c7c" fill-rule="evenodd"></path></g></svg>