<svg id="svg" version="1.1" xmlns="http://www.w3.org/2000/svg" xmlns:xlink="http://www.w3.org/1999/xlink" width="400" height="400" viewBox="0, 0, 400,400"><g id="svgg"><path id="path0" d="M44.503 87.212 C 41.764 88.313,42.003 77.426,42.001 200.828 L 42.000 311.456 43.177 312.775 C 46.195 316.154,47.501 315.456,63.000 302.182 C 71.656 294.769,86.233 282.897,86.487 283.054 C 86.659 283.160,86.800 289.330,86.800 296.764 C 86.800 311.532,86.900 312.302,88.983 313.589 C 92.113 315.524,90.904 316.323,113.800 297.199 C 124.140 288.563,136.632 278.145,141.560 274.048 C 146.488 269.952,151.906 265.430,153.600 264.000 C 157.604 260.620,168.149 251.827,185.173 237.674 C 186.148 236.863,189.478 234.061,192.573 231.447 C 195.668 228.833,198.597 226.433,199.083 226.112 C 199.930 225.554,200.696 226.140,217.841 240.465 C 227.673 248.679,236.260 255.842,236.925 256.381 C 237.590 256.921,243.728 262.030,250.567 267.734 C 297.684 307.038,305.822 313.753,306.776 314.114 C 308.515 314.770,310.648 314.145,311.792 312.646 L 312.800 311.324 312.800 297.062 C 312.800 289.218,312.951 282.800,313.135 282.800 C 313.320 282.800,317.055 285.796,321.435 289.458 C 353.588 316.337,351.268 314.541,353.511 314.289 C 355.597 314.053,357.043 312.831,357.598 310.830 C 358.283 308.365,358.136 91.500,357.448 89.854 C 356.295 87.093,353.055 85.934,350.789 87.471 C 349.786 88.151,344.032 92.858,338.405 97.600 C 325.015 108.885,313.453 118.400,313.129 118.400 C 312.948 118.400,312.800 111.982,312.800 104.138 L 312.800 89.876 311.792 88.554 C 310.728 87.159,308.815 86.509,307.066 86.948 C 306.549 87.077,302.003 90.614,296.963 94.807 C 291.924 99.001,284.291 105.349,280.003 108.916 C 270.528 116.794,270.404 116.898,269.847 117.411 C 269.601 117.638,262.452 123.609,253.959 130.682 C 245.467 137.755,236.827 144.963,234.759 146.701 C 232.692 148.438,224.010 155.674,215.467 162.781 L 199.933 175.701 198.667 174.766 C 197.970 174.252,195.240 172.013,192.600 169.792 C 184.154 162.684,151.536 135.437,150.233 134.400 C 148.457 132.988,125.818 114.125,120.967 110.016 C 118.749 108.137,116.063 105.880,114.997 105.000 C 113.932 104.120,108.577 99.665,103.099 95.100 C 92.292 86.096,92.016 85.944,89.149 87.427 C 86.913 88.583,86.800 89.395,86.800 104.364 C 86.800 111.838,86.655 118.042,86.478 118.152 C 86.211 118.317,74.703 108.871,54.000 91.493 C 48.282 86.693,47.108 86.164,44.503 87.212 M303.600 114.110 L 303.600 126.621 298.300 131.069 C 295.385 133.515,286.430 140.988,278.400 147.674 C 259.518 163.396,236.433 182.649,235.362 183.568 C 232.230 186.255,222.352 194.400,222.226 194.400 C 222.141 194.400,220.099 192.735,217.689 190.700 C 215.279 188.665,212.017 185.937,210.441 184.638 C 208.865 183.338,207.640 182.078,207.720 181.838 C 207.850 181.446,210.482 179.199,224.534 167.480 C 226.697 165.676,228.857 163.867,229.334 163.460 C 229.810 163.053,234.769 158.913,240.354 154.260 C 245.938 149.607,253.070 143.640,256.201 141.000 C 259.333 138.360,263.854 134.584,266.248 132.609 C 268.641 130.634,271.875 127.934,273.433 126.609 C 274.991 125.284,276.701 123.838,277.233 123.394 C 277.765 122.951,282.498 118.991,287.751 114.594 C 293.004 110.198,297.864 106.158,298.551 105.618 C 299.238 105.078,300.590 103.953,301.556 103.118 C 302.522 102.283,303.377 101.600,303.456 101.600 C 303.535 101.600,303.600 107.230,303.600 114.110 M65.468 113.253 C 72.910 119.443,79.643 125.068,80.428 125.753 C 81.214 126.439,82.967 127.900,84.325 129.000 L 86.794 131.000 86.794 200.600 L 86.794 270.200 84.344 272.200 C 82.997 273.300,81.693 274.387,81.447 274.615 C 79.163 276.734,51.874 299.200,51.583 299.200 C 51.340 299.200,51.200 263.151,51.200 200.600 C 51.200 140.910,51.345 102.000,51.568 102.000 C 51.770 102.000,58.025 107.064,65.468 113.253 M106.472 110.100 C 111.771 114.555,116.667 118.650,117.353 119.200 C 118.038 119.750,123.549 124.336,129.599 129.392 C 135.650 134.447,147.608 144.422,156.174 151.559 C 164.740 158.695,172.120 164.852,172.574 165.242 C 173.028 165.632,180.150 171.568,188.400 178.434 C 196.650 185.299,204.043 191.475,204.828 192.158 C 205.614 192.841,206.696 193.760,207.234 194.200 C 212.125 198.206,214.400 200.247,214.400 200.628 C 214.400 200.876,212.578 202.592,210.350 204.440 C 208.123 206.288,206.098 207.985,205.850 208.212 C 205.603 208.438,198.470 214.393,190.000 221.445 C 181.530 228.497,172.890 235.705,170.800 237.463 C 168.710 239.221,162.590 244.319,157.200 248.792 C 151.810 253.265,146.757 257.482,145.972 258.163 C 145.186 258.843,144.106 259.763,143.572 260.208 C 120.786 279.147,113.764 285.000,113.600 285.191 C 111.847 287.236,96.644 299.198,96.363 298.754 C 95.973 298.137,95.853 103.648,96.243 102.633 C 96.591 101.726,95.996 101.292,106.472 110.100 M348.400 200.600 C 348.400 260.952,348.256 299.200,348.029 299.200 C 347.652 299.200,346.531 298.279,325.374 280.586 C 315.239 272.111,288.375 249.680,285.800 247.543 C 285.360 247.178,283.470 245.584,281.600 244.000 C 279.730 242.416,277.840 240.824,277.400 240.460 C 276.960 240.097,272.305 236.200,267.056 231.800 C 261.807 227.400,256.835 223.260,256.007 222.600 C 254.680 221.542,240.703 209.833,233.023 203.346 C 229.659 200.504,229.666 200.703,232.832 198.036 C 234.244 196.847,236.300 195.109,237.400 194.176 C 240.379 191.648,263.704 172.166,273.955 163.644 C 278.880 159.550,284.910 154.502,287.355 152.427 C 291.409 148.986,301.298 140.722,323.000 122.640 C 327.400 118.974,332.775 114.495,334.945 112.687 C 337.114 110.879,339.094 109.214,339.345 108.988 C 341.874 106.697,347.695 102.000,348.004 102.000 C 348.264 102.000,348.400 135.839,348.400 200.600 M229.667 212.891 C 235.993 218.208,244.790 225.544,277.200 252.529 C 285.670 259.582,293.872 266.443,295.426 267.776 C 297.930 269.923,299.426 271.172,302.710 273.856 L 303.620 274.600 303.510 287.121 L 303.400 299.641 301.349 297.921 C 300.220 296.974,297.520 294.724,295.349 292.919 C 287.247 286.188,278.185 278.620,277.745 278.217 C 277.285 277.796,275.778 276.537,261.580 264.713 C 248.856 254.116,227.247 236.054,223.800 233.134 C 222.040 231.643,217.720 228.022,214.200 225.086 C 210.680 222.151,207.800 219.526,207.800 219.254 C 207.800 218.480,222.087 206.808,222.647 207.125 C 222.915 207.276,226.073 209.871,229.667 212.891 " stroke="none" fill="#f9f9f9" fill-rule="evenodd"></path><path id="path1" d="M0.000 200.000 L 0.000 400.000 200.000 400.000 L 400.000 400.000 400.000 200.000 L 400.000 0.000 200.000 0.000 L 0.000 0.000 0.000 200.000 M49.237 86.958 C 49.976 87.471,52.471 89.528,56.805 93.200 C 58.493 94.630,64.357 99.520,69.837 104.066 C 75.317 108.613,80.162 112.663,80.604 113.066 C 81.046 113.470,82.306 114.517,83.404 115.393 C 84.502 116.269,85.460 117.124,85.533 117.293 C 86.211 118.853,86.400 115.863,86.400 103.586 C 86.400 88.212,86.395 88.244,88.840 86.980 C 91.954 85.369,92.629 85.710,102.429 93.855 C 112.134 101.920,113.645 103.183,118.560 107.340 C 120.342 108.846,122.165 110.376,122.611 110.740 C 123.057 111.103,125.487 113.121,128.011 115.225 C 130.535 117.329,134.850 120.915,137.600 123.195 C 140.350 125.475,142.690 127.444,142.800 127.570 C 142.910 127.697,143.900 128.516,145.000 129.392 C 146.100 130.267,147.193 131.167,147.429 131.392 C 147.665 131.616,153.494 136.480,160.383 142.200 C 167.272 147.920,175.371 154.670,178.381 157.200 C 181.391 159.730,184.728 162.520,185.795 163.400 C 186.862 164.280,189.118 166.170,190.807 167.600 C 196.435 172.365,199.238 174.599,199.730 174.712 C 200.241 174.829,200.904 174.329,206.171 169.860 C 207.947 168.354,209.760 166.822,210.200 166.456 C 216.914 160.882,230.308 149.712,230.647 149.405 C 230.893 149.182,232.316 148.010,233.808 146.800 C 235.301 145.590,237.907 143.430,239.601 142.000 C 244.778 137.628,253.569 130.279,261.752 123.482 C 263.926 121.677,267.094 119.030,268.792 117.600 C 273.172 113.912,278.817 109.206,299.414 92.077 C 299.861 91.705,301.292 90.501,302.593 89.401 C 307.357 85.376,310.474 85.237,312.767 88.947 C 313.568 90.243,313.600 90.813,313.600 103.956 L 313.600 117.618 317.300 114.543 C 321.859 110.754,326.279 107.056,330.547 103.460 C 332.336 101.954,334.182 100.400,334.649 100.007 C 335.117 99.614,336.917 98.147,338.649 96.747 C 340.382 95.346,341.890 94.099,342.000 93.975 C 342.430 93.491,349.456 87.712,350.389 87.075 C 352.948 85.328,357.144 86.893,357.981 89.908 C 358.535 91.902,358.566 309.226,358.013 311.156 C 357.398 313.299,355.423 314.800,353.217 314.800 C 350.998 314.800,351.205 314.937,342.400 307.622 C 338.550 304.423,335.040 301.508,334.600 301.143 C 334.160 300.779,332.981 299.787,331.981 298.940 C 330.980 298.093,329.285 296.680,328.213 295.800 C 327.141 294.920,324.876 293.030,323.180 291.600 C 321.483 290.170,318.634 287.775,316.847 286.277 L 313.600 283.554 313.591 296.877 C 313.582 311.487,313.411 312.657,311.066 314.193 C 308.774 315.695,306.416 315.029,302.593 311.799 C 301.292 310.699,299.861 309.503,299.414 309.140 C 298.966 308.777,297.700 307.724,296.600 306.800 C 295.500 305.876,294.240 304.821,293.800 304.457 C 288.543 300.102,273.692 287.728,273.345 287.413 C 273.094 287.186,271.114 285.521,268.945 283.714 C 261.633 277.624,245.007 263.782,244.200 263.113 C 240.639 260.163,237.638 257.660,236.800 256.940 C 235.554 255.869,232.071 252.942,230.994 252.060 C 230.551 251.697,227.536 249.195,224.294 246.500 C 221.052 243.805,215.745 239.395,212.500 236.701 C 209.255 234.006,205.970 231.230,205.200 230.531 C 200.182 225.978,199.973 225.920,197.168 228.304 C 195.941 229.347,194.069 230.920,193.009 231.800 C 190.981 233.484,188.033 235.947,186.471 237.263 C 185.493 238.087,168.177 252.521,161.455 258.117 C 159.286 259.922,157.306 261.585,157.055 261.811 C 156.049 262.718,122.962 290.256,121.984 291.000 C 121.406 291.440,119.868 292.728,118.566 293.862 C 113.519 298.261,94.554 313.890,93.726 314.333 C 91.578 315.482,88.293 314.541,86.713 312.323 C 86.665 312.255,86.530 305.755,86.413 297.877 L 86.200 283.554 73.400 294.187 C 58.575 306.503,53.157 311.027,51.666 312.337 C 47.506 315.991,42.934 315.496,41.664 311.255 C 40.966 308.927,40.999 92.762,41.697 90.152 C 42.599 86.783,46.563 85.104,49.237 86.958 M345.171 104.716 C 343.725 105.972,341.663 107.720,340.590 108.600 C 339.516 109.480,337.899 110.830,336.995 111.600 C 336.091 112.370,334.611 113.597,333.707 114.326 C 332.803 115.056,331.554 116.100,330.931 116.647 C 330.309 117.194,327.477 119.567,324.637 121.921 C 321.797 124.274,318.093 127.370,316.405 128.800 C 314.717 130.230,312.459 132.120,311.387 133.000 C 310.315 133.880,308.697 135.230,307.791 136.000 C 306.884 136.770,305.600 137.850,304.937 138.400 C 300.066 142.440,289.717 151.080,287.043 153.340 C 285.259 154.846,283.440 156.377,283.000 156.742 C 282.560 157.106,277.882 161.003,272.605 165.402 C 267.327 169.801,262.647 173.697,262.205 174.060 C 261.762 174.424,259.870 176.016,258.000 177.600 C 256.130 179.184,254.240 180.777,253.800 181.140 C 249.965 184.306,237.904 194.392,236.786 195.367 C 234.761 197.133,231.998 199.346,231.353 199.720 C 230.523 200.200,230.685 201.033,231.744 201.726 C 232.263 202.067,232.938 202.584,233.244 202.877 C 233.550 203.170,237.040 206.098,241.000 209.385 C 244.960 212.672,248.650 215.761,249.200 216.249 C 250.327 217.249,252.917 219.423,255.813 221.800 C 256.885 222.680,258.580 224.093,259.581 224.940 C 260.581 225.787,261.763 226.777,262.206 227.140 C 262.649 227.503,265.709 230.049,269.006 232.798 C 272.303 235.547,275.435 238.157,275.967 238.598 C 276.499 239.039,278.209 240.487,279.767 241.816 C 281.325 243.144,283.160 244.674,283.845 245.216 C 284.529 245.757,289.389 249.798,294.645 254.195 C 299.900 258.592,304.560 262.489,305.000 262.855 C 305.440 263.221,307.262 264.754,309.048 266.260 C 312.459 269.138,317.380 273.235,324.400 279.043 C 326.710 280.954,329.324 283.166,330.210 283.959 C 331.095 284.752,332.617 286.030,333.591 286.800 C 334.565 287.570,336.631 289.283,338.181 290.606 C 339.732 291.929,342.575 294.323,344.500 295.926 L 348.000 298.840 348.000 200.620 C 348.000 146.599,347.955 102.407,347.900 102.416 C 347.845 102.425,346.617 103.460,345.171 104.716 M52.000 200.622 C 52.000 293.100,52.038 298.468,52.687 297.949 C 54.257 296.695,55.481 295.674,58.167 293.378 C 59.725 292.045,65.860 286.923,71.800 281.996 C 77.740 277.068,82.690 272.934,82.800 272.808 C 82.910 272.682,83.765 271.984,84.700 271.256 L 86.400 269.933 86.400 200.600 L 86.400 131.267 84.700 129.934 C 83.765 129.200,82.550 128.215,82.000 127.745 C 80.728 126.657,77.246 123.723,76.200 122.858 C 75.760 122.495,71.806 119.228,67.414 115.599 C 63.022 111.969,58.612 108.274,57.614 107.387 C 56.616 106.500,54.945 105.093,53.900 104.260 L 52.000 102.746 52.000 200.622 M96.400 200.842 L 96.400 298.950 97.500 297.939 C 98.624 296.906,114.351 283.809,116.639 282.000 C 117.335 281.450,122.199 277.400,127.447 273.000 C 132.696 268.600,137.353 264.703,137.795 264.340 C 138.238 263.977,139.419 262.987,140.419 262.140 C 141.420 261.293,143.115 259.880,144.187 259.000 C 145.259 258.120,146.884 256.770,147.797 256.000 C 148.710 255.230,150.328 253.880,151.392 253.000 C 152.456 252.120,154.168 250.680,155.196 249.800 C 156.224 248.920,157.517 247.840,158.069 247.400 C 159.385 246.352,171.652 236.130,175.589 232.800 C 177.281 231.370,179.541 229.480,180.613 228.600 C 181.685 227.720,183.380 226.307,184.381 225.460 C 185.381 224.613,186.560 223.622,187.000 223.259 C 187.440 222.896,190.500 220.349,193.800 217.600 C 197.100 214.851,200.160 212.304,200.600 211.940 C 201.040 211.577,202.858 210.046,204.639 208.540 C 209.752 204.215,213.216 201.411,213.624 201.267 C 214.395 200.993,213.923 200.407,210.941 197.935 C 209.258 196.541,206.603 194.313,205.041 192.984 C 203.478 191.656,201.641 190.126,200.957 189.584 C 200.273 189.043,195.414 185.006,190.160 180.613 C 179.113 171.378,179.557 171.749,177.171 169.740 C 176.166 168.893,174.474 167.480,173.413 166.600 C 172.351 165.720,170.654 164.307,169.641 163.460 C 168.629 162.613,167.440 161.621,167.000 161.257 C 155.073 151.378,151.689 148.553,151.157 148.031 C 150.803 147.684,149.291 146.410,147.796 145.200 C 146.301 143.990,143.621 141.767,141.839 140.260 C 140.058 138.754,138.235 137.224,137.789 136.860 C 137.343 136.497,134.913 134.479,132.389 132.375 C 129.865 130.271,125.550 126.681,122.800 124.396 C 120.050 122.111,117.600 120.052,117.356 119.821 C 116.158 118.685,97.091 102.982,96.770 102.867 C 96.544 102.785,96.400 140.840,96.400 200.842 M298.965 105.914 C 296.965 107.611,292.843 111.070,289.805 113.600 C 286.767 116.130,283.003 119.287,281.441 120.616 C 279.878 121.944,278.039 123.474,277.353 124.016 C 276.668 124.557,271.808 128.598,266.553 132.997 C 261.299 137.395,256.640 141.292,256.200 141.656 C 255.760 142.021,254.576 143.013,253.568 143.860 C 252.561 144.707,250.857 146.120,249.783 147.000 C 248.709 147.880,246.998 149.320,245.982 150.200 C 244.966 151.080,243.683 152.160,243.131 152.600 C 241.820 153.644,229.606 163.822,225.443 167.340 C 223.659 168.846,221.753 170.457,221.206 170.919 C 220.659 171.380,217.544 173.987,214.283 176.711 C 211.022 179.435,208.410 181.816,208.477 182.002 C 208.615 182.383,220.100 192.167,221.492 193.090 C 222.339 193.652,222.554 193.542,225.688 190.941 C 227.505 189.433,229.353 187.903,229.796 187.540 C 230.238 187.177,231.419 186.187,232.419 185.340 C 233.420 184.493,235.111 183.080,236.178 182.200 C 237.245 181.320,238.317 180.416,238.559 180.192 C 238.802 179.967,239.898 179.067,240.996 178.192 C 242.094 177.316,243.354 176.270,243.796 175.866 C 244.238 175.463,249.083 171.413,254.563 166.866 C 260.043 162.320,265.983 157.367,267.763 155.860 C 269.543 154.354,271.361 152.818,271.803 152.447 C 272.509 151.856,290.505 136.882,292.600 135.144 C 293.040 134.779,294.224 133.787,295.232 132.940 C 296.239 132.093,297.949 130.680,299.032 129.801 C 300.114 128.921,301.495 127.720,302.100 127.131 L 303.200 126.062 303.200 114.431 C 303.200 108.034,303.065 102.806,302.900 102.814 C 302.735 102.822,300.964 104.217,298.965 105.914 M220.954 208.494 C 220.319 208.985,219.440 209.717,219.000 210.121 C 218.560 210.524,215.995 212.680,213.300 214.911 C 210.605 217.142,208.414 219.155,208.431 219.384 C 208.448 219.613,210.875 221.780,213.824 224.200 C 216.773 226.620,219.713 229.050,220.356 229.600 C 221.000 230.150,223.298 232.076,225.463 233.881 C 228.623 236.514,239.544 245.628,243.400 248.851 C 243.840 249.219,245.019 250.213,246.019 251.060 C 247.020 251.907,248.640 253.262,249.619 254.071 C 252.352 256.330,268.870 270.118,270.000 271.085 C 279.442 279.162,302.675 298.400,302.987 298.400 C 303.104 298.400,303.200 293.174,303.200 286.787 L 303.200 275.173 302.059 274.087 C 301.432 273.489,300.050 272.280,298.988 271.400 C 297.926 270.520,296.310 269.170,295.397 268.400 C 294.484 267.630,292.859 266.280,291.787 265.400 C 290.715 264.520,289.020 263.107,288.019 262.260 C 287.019 261.413,285.838 260.423,285.396 260.060 C 279.437 255.167,267.864 245.500,266.737 244.472 C 265.932 243.740,264.756 242.748,264.123 242.270 C 262.700 241.194,237.651 220.352,233.781 217.024 C 232.231 215.691,230.173 213.970,229.209 213.200 C 228.244 212.430,226.343 210.855,224.983 209.700 C 222.110 207.261,222.425 207.355,220.954 208.494 " stroke="none" fill="#040404" fill-rule="evenodd"></path><path id="path2" d="M304.487 88.300 C 303.530 89.235,303.514 89.281,304.381 88.606 C 306.088 87.276,306.169 87.200,305.886 87.200 C 305.736 87.200,305.106 87.695,304.487 88.300 M311.599 88.300 C 312.122 89.015,312.613 89.600,312.689 89.600 C 312.993 89.600,312.001 88.100,311.345 87.567 C 310.913 87.216,311.010 87.496,311.599 88.300 M312.887 104.300 C 312.839 112.055,312.935 118.400,313.100 118.400 C 313.373 118.401,313.367 107.869,313.085 95.200 C 313.024 92.450,312.935 96.545,312.887 104.300 M41.797 200.600 C 41.797 260.880,41.843 285.480,41.900 255.268 C 41.957 225.055,41.957 175.735,41.900 145.668 C 41.843 115.600,41.797 140.320,41.797 200.600 M86.494 104.524 C 86.424 114.624,86.283 117.975,85.938 117.762 C 85.641 117.578,85.585 117.653,85.783 117.973 C 86.629 119.342,86.803 116.768,86.700 104.375 L 86.589 91.000 86.494 104.524 M296.575 94.900 L 295.400 96.200 296.700 95.025 C 297.415 94.379,298.000 93.794,298.000 93.725 C 298.000 93.416,297.670 93.688,296.575 94.900 M51.200 200.600 C 51.200 254.830,51.335 299.200,51.500 299.200 C 51.665 299.200,51.800 254.830,51.800 200.600 C 51.800 146.370,51.665 102.000,51.500 102.000 C 51.335 102.000,51.200 146.370,51.200 200.600 M330.600 103.849 L 328.600 105.681 330.700 104.003 C 332.518 102.551,333.095 101.976,332.700 102.008 C 332.645 102.013,331.700 102.841,330.600 103.849 M96.197 200.600 C 96.197 254.500,96.243 276.491,96.300 249.468 C 96.357 222.445,96.357 178.345,96.300 151.468 C 96.243 124.591,96.197 146.700,96.197 200.600 M343.775 105.300 L 342.600 106.600 343.900 105.425 C 344.615 104.779,345.200 104.194,345.200 104.125 C 345.200 103.816,344.870 104.088,343.775 105.300 M123.200 111.714 C 123.200 111.818,124.228 112.780,125.484 113.851 C 126.740 114.923,127.639 115.591,127.483 115.336 C 127.139 114.777,123.200 111.446,123.200 111.714 M267.970 118.700 L 267.000 119.800 268.200 118.800 C 268.860 118.250,269.475 117.755,269.567 117.700 C 269.658 117.645,269.555 117.600,269.336 117.600 C 269.118 117.600,268.503 118.095,267.970 118.700 M78.400 124.125 C 78.400 124.194,78.985 124.779,79.700 125.425 L 81.000 126.600 79.825 125.300 C 78.730 124.088,78.400 123.816,78.400 124.125 M315.800 128.649 L 313.800 130.481 315.900 128.803 C 317.718 127.351,318.295 126.776,317.900 126.808 C 317.845 126.813,316.900 127.641,315.800 128.649 M86.200 200.600 C 86.200 239.168,86.335 270.640,86.500 270.538 C 86.892 270.296,86.892 130.904,86.500 130.662 C 86.335 130.560,86.200 162.032,86.200 200.600 M294.400 134.057 L 292.200 136.089 294.299 134.408 C 296.139 132.934,297.113 131.973,296.724 132.013 C 296.656 132.020,295.610 132.940,294.400 134.057 M232.800 148.057 L 230.600 150.089 232.699 148.408 C 234.539 146.934,235.513 145.973,235.124 146.013 C 235.056 146.020,234.010 146.940,232.800 148.057 M188.117 165.864 C 188.461 166.423,192.400 169.754,192.400 169.486 C 192.400 169.382,191.372 168.420,190.116 167.349 C 188.860 166.277,187.961 165.609,188.117 165.864 M238.678 193.013 C 238.060 193.556,237.714 194.000,237.908 194.000 C 238.102 194.000,238.683 193.550,239.200 193.000 C 240.395 191.728,240.131 191.734,238.678 193.013 M224.917 209.064 C 225.261 209.623,229.200 212.954,229.200 212.686 C 229.200 212.582,228.172 211.620,226.916 210.549 C 225.660 209.477,224.761 208.809,224.917 209.064 M196.175 228.500 L 195.000 229.800 196.300 228.625 C 197.512 227.530,197.784 227.200,197.475 227.200 C 197.406 227.200,196.821 227.785,196.175 228.500 M258.800 237.314 C 258.800 237.418,259.828 238.380,261.084 239.451 C 262.340 240.523,263.239 241.191,263.083 240.936 C 262.739 240.377,258.800 237.046,258.800 237.314 M286.435 248.100 C 286.528 248.155,287.233 248.740,288.002 249.400 L 289.400 250.600 288.225 249.300 C 287.579 248.585,286.874 248.000,286.658 248.000 C 286.443 248.000,286.343 248.045,286.435 248.100 M252.400 256.926 C 252.400 257.036,253.300 257.879,254.400 258.800 C 255.500 259.721,256.400 260.384,256.400 260.274 C 256.400 260.164,255.500 259.321,254.400 258.400 C 253.300 257.479,252.400 256.816,252.400 256.926 M140.975 262.100 L 139.800 263.400 141.198 262.200 C 141.967 261.540,142.672 260.955,142.765 260.900 C 142.857 260.845,142.757 260.800,142.542 260.800 C 142.326 260.800,141.621 261.385,140.975 262.100 M79.375 276.100 L 78.200 277.400 79.598 276.200 C 80.367 275.540,81.072 274.955,81.165 274.900 C 81.257 274.845,81.157 274.800,80.942 274.800 C 80.726 274.800,80.021 275.385,79.375 276.100 M260.000 275.726 C 260.000 275.836,260.900 276.679,262.000 277.600 C 263.100 278.521,264.000 279.184,264.000 279.074 C 264.000 278.964,263.100 278.121,262.000 277.200 C 260.900 276.279,260.000 275.616,260.000 275.726 M281.200 280.925 C 281.200 280.994,281.785 281.579,282.500 282.225 L 283.800 283.400 282.625 282.100 C 281.530 280.888,281.200 280.616,281.200 280.925 M85.783 283.227 C 85.585 283.547,85.641 283.622,85.938 283.438 C 86.283 283.225,86.424 286.576,86.494 296.676 L 86.589 310.200 86.700 296.825 C 86.803 284.432,86.629 281.858,85.783 283.227 M312.886 296.700 C 312.934 304.345,313.023 308.440,313.085 305.800 C 313.366 293.710,313.373 282.799,313.100 282.800 C 312.935 282.800,312.839 289.055,312.886 296.700 M111.970 286.300 L 111.000 287.400 112.200 286.400 C 112.860 285.850,113.475 285.355,113.567 285.300 C 113.658 285.245,113.555 285.200,113.336 285.200 C 113.118 285.200,112.503 285.695,111.970 286.300 M335.717 289.064 C 336.061 289.623,340.000 292.954,340.000 292.686 C 340.000 292.582,338.972 291.620,337.716 290.549 C 336.460 289.477,335.561 288.809,335.717 289.064 M321.600 289.726 C 321.600 289.836,322.500 290.679,323.600 291.600 C 324.700 292.521,325.600 293.184,325.600 293.074 C 325.600 292.964,324.700 292.121,323.600 291.200 C 322.500 290.279,321.600 289.616,321.600 289.726 M64.278 301.013 C 63.660 301.556,63.314 302.000,63.508 302.000 C 63.702 302.000,64.283 301.550,64.800 301.000 C 65.995 299.728,65.731 299.734,64.278 301.013 M311.599 312.900 C 311.010 313.704,310.913 313.984,311.345 313.633 C 312.001 313.100,312.993 311.600,312.689 311.600 C 312.613 311.600,312.122 312.185,311.599 312.900 " stroke="none" fill="#848484" fill-rule="evenodd"></path><path id="path3" d="M310.200 86.868 C 310.640 87.112,311.279 87.512,311.620 87.756 C 311.960 88.000,311.815 87.795,311.297 87.300 C 310.779 86.805,310.140 86.405,309.878 86.412 C 309.615 86.419,309.760 86.624,310.200 86.868 M50.488 88.213 C 51.086 88.843,51.647 89.277,51.735 89.179 C 51.823 89.080,51.333 88.565,50.647 88.034 L 49.400 87.069 50.488 88.213 M303.775 88.500 L 302.600 89.800 303.998 88.600 C 304.767 87.940,305.472 87.355,305.565 87.300 C 305.657 87.245,305.557 87.200,305.342 87.200 C 305.126 87.200,304.421 87.785,303.775 88.500 M312.670 89.200 C 312.852 89.530,313.095 96.100,313.210 103.800 L 313.420 117.800 313.510 103.976 C 313.589 91.906,313.520 90.054,312.970 89.376 C 312.624 88.949,312.489 88.870,312.670 89.200 M54.000 90.925 C 54.000 90.994,54.585 91.579,55.300 92.225 L 56.600 93.400 55.425 92.100 C 54.330 90.888,54.000 90.616,54.000 90.925 M358.197 200.600 C 358.197 261.100,358.243 285.790,358.300 255.468 C 358.357 225.145,358.357 175.645,358.300 145.468 C 358.243 115.290,358.197 140.100,358.197 200.600 M41.397 200.800 C 41.397 261.190,41.443 285.895,41.500 255.700 C 41.557 225.505,41.557 176.095,41.500 145.900 C 41.443 115.705,41.397 140.410,41.397 200.800 M337.469 97.616 C 336.187 98.707,335.287 99.594,335.469 99.587 C 335.820 99.574,340.341 95.623,340.000 95.628 C 339.890 95.630,338.751 96.524,337.469 97.616 M110.981 101.287 C 112.092 102.325,113.141 103.180,113.314 103.187 C 113.487 103.194,112.947 102.625,112.114 101.922 C 109.399 99.629,108.921 99.361,110.981 101.287 M331.775 102.500 L 330.600 103.800 331.900 102.625 C 332.615 101.979,333.200 101.394,333.200 101.325 C 333.200 101.016,332.870 101.288,331.775 102.500 M302.087 103.100 C 301.468 103.705,301.342 103.885,301.807 103.500 C 302.271 103.115,302.775 102.800,302.926 102.800 C 303.570 102.800,303.227 125.779,302.568 126.811 L 301.936 127.800 302.768 126.856 C 303.552 125.966,304.168 102.000,303.406 102.000 C 303.300 102.000,302.706 102.495,302.087 103.100 M51.600 200.600 C 51.600 256.665,51.751 298.800,51.951 298.800 C 52.144 298.800,52.549 298.485,52.851 298.100 C 53.349 297.466,53.334 297.451,52.700 297.949 C 52.034 298.471,52.000 293.778,52.000 200.579 L 52.000 102.661 53.100 103.630 L 54.200 104.600 53.230 103.500 C 52.697 102.895,52.112 102.400,51.930 102.400 C 51.749 102.400,51.600 146.590,51.600 200.600 M96.433 102.500 C 96.525 102.555,97.140 103.050,97.800 103.600 L 99.000 104.600 98.030 103.500 C 97.497 102.895,96.882 102.400,96.664 102.400 C 96.445 102.400,96.342 102.445,96.433 102.500 M348.197 200.600 C 348.197 254.500,348.243 276.491,348.300 249.468 C 348.357 222.445,348.357 178.345,348.300 151.468 C 348.243 124.591,348.197 146.700,348.197 200.600 M56.759 106.520 C 57.406 107.334,61.200 110.562,61.200 110.297 C 61.200 110.200,60.075 109.151,58.700 107.968 C 57.325 106.784,56.452 106.132,56.759 106.520 M295.400 108.649 L 293.400 110.481 295.500 108.803 C 297.318 107.351,297.895 106.776,297.500 106.808 C 297.445 106.813,296.500 107.641,295.400 108.649 M324.575 108.500 L 323.400 109.800 324.700 108.625 C 325.415 107.979,326.000 107.394,326.000 107.325 C 326.000 107.016,325.670 107.288,324.575 108.500 M75.717 109.064 C 76.061 109.623,80.000 112.954,80.000 112.686 C 80.000 112.582,78.972 111.620,77.716 110.549 C 76.460 109.477,75.561 108.809,75.717 109.064 M275.869 111.616 C 274.587 112.707,273.687 113.594,273.869 113.587 C 274.220 113.574,278.741 109.623,278.400 109.628 C 278.290 109.630,277.151 110.524,275.869 111.616 M286.575 116.100 L 285.400 117.400 286.700 116.225 C 287.415 115.579,288.000 114.994,288.000 114.925 C 288.000 114.616,287.670 114.888,286.575 116.100 M84.088 116.213 C 84.686 116.843,85.247 117.277,85.335 117.179 C 85.423 117.080,84.933 116.565,84.247 116.034 L 83.000 115.069 84.088 116.213 M270.175 116.500 L 269.000 117.800 270.300 116.625 C 271.015 115.979,271.600 115.394,271.600 115.325 C 271.600 115.016,271.270 115.288,270.175 116.500 M328.000 118.857 L 325.800 120.889 327.899 119.208 C 329.739 117.734,330.713 116.773,330.324 116.813 C 330.256 116.820,329.210 117.740,328.000 118.857 M118.517 120.664 C 118.861 121.223,122.800 124.554,122.800 124.286 C 122.800 124.182,121.772 123.220,120.516 122.149 C 119.260 121.077,118.361 120.409,118.517 120.664 M279.375 122.100 L 278.200 123.400 279.500 122.225 C 280.215 121.579,280.800 120.994,280.800 120.925 C 280.800 120.616,280.470 120.888,279.375 122.100 M273.600 126.857 L 271.400 128.889 273.499 127.208 C 275.339 125.734,276.313 124.773,275.924 124.813 C 275.856 124.820,274.810 125.740,273.600 126.857 M145.688 130.213 C 146.286 130.843,146.847 131.277,146.935 131.179 C 147.023 131.080,146.533 130.565,145.847 130.034 L 144.600 129.069 145.688 130.213 M307.375 136.100 L 306.200 137.400 307.500 136.225 C 308.215 135.579,308.800 134.994,308.800 134.925 C 308.800 134.616,308.470 134.888,307.375 136.100 M299.775 142.500 L 298.600 143.800 299.900 142.625 C 300.615 141.979,301.200 141.394,301.200 141.325 C 301.200 141.016,300.870 141.288,299.775 142.500 M274.880 149.820 C 273.494 151.019,272.504 151.996,272.680 151.990 C 272.856 151.985,274.080 151.002,275.400 149.806 C 278.510 146.988,278.143 146.998,274.880 149.820 M152.400 148.914 C 152.400 149.018,153.428 149.980,154.684 151.051 C 155.940 152.123,156.839 152.791,156.683 152.536 C 156.339 151.977,152.400 148.646,152.400 148.914 M244.800 150.868 C 243.752 151.820,243.501 152.165,244.200 151.695 C 245.304 150.951,247.138 149.177,246.762 149.217 C 246.673 149.226,245.790 149.970,244.800 150.868 M172.645 152.664 C 173.330 153.289,174.860 154.582,176.045 155.538 L 178.200 157.276 176.400 155.616 C 175.410 154.703,173.880 153.409,173.000 152.742 C 171.470 151.580,171.454 151.577,172.645 152.664 M280.770 158.300 L 279.800 159.400 281.000 158.400 C 281.660 157.850,282.275 157.355,282.367 157.300 C 282.458 157.245,282.355 157.200,282.136 157.200 C 281.918 157.200,281.303 157.695,280.770 158.300 M180.800 159.325 C 180.800 159.394,181.385 159.979,182.100 160.625 L 183.400 161.800 182.225 160.500 C 181.130 159.288,180.800 159.016,180.800 159.325 M212.094 164.812 C 211.375 165.465,210.937 166.000,211.119 166.000 C 211.301 166.000,211.968 165.460,212.600 164.800 C 214.070 163.265,213.786 163.272,212.094 164.812 M188.000 165.325 C 188.000 165.394,188.585 165.979,189.300 166.625 L 190.600 167.800 189.425 166.500 C 188.330 165.288,188.000 165.016,188.000 165.325 M246.400 173.657 L 244.200 175.689 246.299 174.008 C 248.139 172.534,249.113 171.573,248.724 171.613 C 248.656 171.620,247.610 172.540,246.400 173.657 M217.400 173.849 L 215.400 175.681 217.500 174.003 C 219.318 172.551,219.895 171.976,219.500 172.008 C 219.445 172.013,218.500 172.841,217.400 173.849 M239.878 179.013 C 239.260 179.556,238.914 180.000,239.108 180.000 C 239.302 180.000,239.883 179.550,240.400 179.000 C 241.595 177.728,241.331 177.734,239.878 179.013 M208.870 180.926 C 207.707 182.163,207.592 181.964,211.100 184.787 C 212.805 186.160,213.657 186.769,212.994 186.141 C 212.330 185.514,210.983 184.337,209.999 183.526 L 208.212 182.052 209.176 181.026 C 209.706 180.462,210.049 180.000,209.939 180.000 C 209.829 180.000,209.348 180.417,208.870 180.926 M251.570 182.700 L 250.600 183.800 251.800 182.800 C 252.460 182.250,253.075 181.755,253.167 181.700 C 253.258 181.645,253.155 181.600,252.936 181.600 C 252.718 181.600,252.103 182.095,251.570 182.700 M214.400 187.325 C 214.400 187.394,214.985 187.979,215.700 188.625 L 217.000 189.800 215.825 188.500 C 214.730 187.288,214.400 187.016,214.400 187.325 M223.387 192.814 C 222.961 193.285,222.387 193.528,222.025 193.390 C 221.521 193.199,221.498 193.251,221.905 193.662 C 222.314 194.073,222.619 193.963,223.496 193.085 C 224.093 192.488,224.479 192.000,224.353 192.000 C 224.227 192.000,223.792 192.366,223.387 192.814 M205.200 192.925 C 205.200 192.994,205.785 193.579,206.500 194.225 L 207.800 195.400 206.625 194.100 C 205.530 192.888,205.200 192.616,205.200 192.925 M236.575 195.300 L 235.400 196.600 236.700 195.425 C 237.415 194.779,238.000 194.194,238.000 194.125 C 238.000 193.816,237.670 194.088,236.575 195.300 M206.175 207.300 L 205.000 208.600 206.300 207.425 C 207.512 206.330,207.784 206.000,207.475 206.000 C 207.406 206.000,206.821 206.585,206.175 207.300 M224.800 209.325 C 224.800 209.394,225.385 209.979,226.100 210.625 L 227.400 211.800 226.225 210.500 C 225.130 209.288,224.800 209.016,224.800 209.325 M216.400 212.040 L 214.200 214.070 216.500 212.187 C 218.519 210.533,219.068 209.988,218.700 210.004 C 218.645 210.007,217.610 210.923,216.400 212.040 M190.200 220.649 L 188.200 222.481 190.300 220.803 C 192.118 219.351,192.695 218.776,192.300 218.808 C 192.245 218.813,191.300 219.641,190.200 220.649 M237.297 219.833 C 237.442 220.068,238.957 221.415,240.664 222.826 C 242.370 224.238,243.648 225.201,243.503 224.967 C 243.358 224.732,241.843 223.385,240.136 221.974 C 238.430 220.562,237.152 219.599,237.297 219.833 M184.175 225.700 L 183.000 227.000 184.300 225.825 C 185.512 224.730,185.784 224.400,185.475 224.400 C 185.406 224.400,184.821 224.985,184.175 225.700 M206.433 231.700 C 206.525 231.755,207.140 232.250,207.800 232.800 L 209.000 233.800 208.030 232.700 C 207.497 232.095,206.882 231.600,206.664 231.600 C 206.445 231.600,206.342 231.645,206.433 231.700 M211.600 235.725 C 211.600 235.794,212.185 236.379,212.900 237.025 L 214.200 238.200 213.025 236.900 C 211.930 235.688,211.600 235.416,211.600 235.725 M277.200 239.725 C 277.200 239.794,277.785 240.379,278.500 241.025 L 279.800 242.200 278.625 240.900 C 277.530 239.688,277.200 239.416,277.200 239.725 M180.400 242.057 L 178.200 244.089 180.299 242.408 C 182.139 240.934,183.113 239.973,182.724 240.013 C 182.656 240.020,181.610 240.940,180.400 242.057 M237.200 243.725 C 237.200 243.794,237.785 244.379,238.500 245.025 L 239.800 246.200 238.625 244.900 C 237.530 243.688,237.200 243.416,237.200 243.725 M268.033 245.700 C 268.125 245.755,268.740 246.250,269.400 246.800 L 270.600 247.800 269.630 246.700 C 269.097 246.095,268.482 245.600,268.264 245.600 C 268.045 245.600,267.942 245.645,268.033 245.700 M174.175 247.300 L 173.000 248.600 174.300 247.425 C 175.015 246.779,175.600 246.194,175.600 246.125 C 175.600 245.816,175.270 246.088,174.175 247.300 M155.951 249.231 L 154.200 250.862 156.100 249.346 C 157.145 248.513,158.000 247.779,158.000 247.715 C 158.000 247.407,157.563 247.730,155.951 249.231 M166.975 253.300 L 165.800 254.600 167.100 253.425 C 168.312 252.330,168.584 252.000,168.275 252.000 C 168.206 252.000,167.621 252.585,166.975 253.300 M159.775 259.300 L 158.600 260.600 159.900 259.425 C 161.112 258.330,161.384 258.000,161.075 258.000 C 161.006 258.000,160.421 258.585,159.775 259.300 M240.000 259.591 C 241.858 261.298,244.000 262.966,244.000 262.707 C 244.000 262.626,242.695 261.520,241.100 260.249 C 239.374 258.873,238.929 258.607,240.000 259.591 M299.600 258.526 C 299.600 258.636,300.500 259.479,301.600 260.400 C 302.700 261.321,303.600 261.984,303.600 261.874 C 303.600 261.764,302.700 260.921,301.600 260.000 C 300.500 259.079,299.600 258.416,299.600 258.526 M306.400 264.125 C 306.400 264.194,306.985 264.779,307.700 265.425 L 309.000 266.600 307.825 265.300 C 306.730 264.088,306.400 263.816,306.400 264.125 M264.400 266.514 C 264.400 266.618,265.428 267.580,266.684 268.651 C 267.940 269.723,268.839 270.391,268.683 270.136 C 268.339 269.577,264.400 266.246,264.400 266.514 M146.600 270.249 L 144.600 272.081 146.700 270.403 C 148.518 268.951,149.095 268.376,148.700 268.408 C 148.645 268.413,147.700 269.241,146.600 270.249 M313.600 270.125 C 313.600 270.194,314.185 270.779,314.900 271.425 L 316.200 272.600 315.025 271.300 C 313.930 270.088,313.600 269.816,313.600 270.125 M302.400 274.400 C 303.208 275.208,303.717 298.400,302.926 298.400 C 302.775 298.400,302.271 298.085,301.807 297.700 C 301.342 297.315,301.510 297.533,302.181 298.184 L 303.400 299.368 303.506 287.423 C 303.614 275.217,303.437 273.600,301.991 273.600 C 301.776 273.600,301.960 273.960,302.400 274.400 M320.800 276.125 C 320.800 276.194,321.385 276.779,322.100 277.425 L 323.400 278.600 322.225 277.300 C 321.130 276.088,320.800 275.816,320.800 276.125 M326.000 280.503 C 326.000 280.600,327.125 281.649,328.500 282.832 C 329.875 284.016,330.748 284.668,330.441 284.280 C 329.794 283.466,326.000 280.238,326.000 280.503 M83.487 285.430 C 82.009 286.657,80.800 287.748,80.800 287.854 C 80.800 287.960,82.060 287.011,83.600 285.744 C 86.150 283.646,86.621 283.200,86.287 283.200 C 86.225 283.200,84.965 284.204,83.487 285.430 M269.200 283.725 C 269.200 283.794,269.785 284.379,270.500 285.025 L 271.800 286.200 270.625 284.900 C 269.530 283.688,269.200 283.416,269.200 283.725 M313.380 297.000 C 313.380 304.480,313.434 307.483,313.499 303.674 C 313.565 299.865,313.565 293.745,313.499 290.074 C 313.433 286.403,313.379 289.520,313.380 297.000 M63.600 288.857 L 61.400 290.889 63.499 289.208 C 65.339 287.734,66.313 286.773,65.924 286.813 C 65.856 286.820,64.810 287.740,63.600 288.857 M274.400 288.126 C 274.400 288.236,275.300 289.079,276.400 290.000 C 277.500 290.921,278.400 291.584,278.400 291.474 C 278.400 291.364,277.500 290.521,276.400 289.600 C 275.300 288.679,274.400 288.016,274.400 288.126 M335.600 288.525 C 335.600 288.594,336.185 289.179,336.900 289.825 L 338.200 291.000 337.025 289.700 C 335.930 288.488,335.600 288.216,335.600 288.525 M293.600 290.926 C 293.600 291.036,294.500 291.879,295.600 292.800 C 296.700 293.721,297.600 294.384,297.600 294.274 C 297.600 294.164,296.700 293.321,295.600 292.400 C 294.500 291.479,293.600 290.816,293.600 290.926 M116.370 295.500 L 115.400 296.600 116.600 295.600 C 117.260 295.050,117.875 294.555,117.967 294.500 C 118.058 294.445,117.955 294.400,117.736 294.400 C 117.518 294.400,116.903 294.895,116.370 295.500 M330.800 297.725 C 330.800 297.794,331.385 298.379,332.100 299.025 L 333.400 300.200 332.225 298.900 C 331.130 297.688,330.800 297.416,330.800 297.725 M336.000 302.126 C 336.000 302.236,336.900 303.079,338.000 304.000 C 339.100 304.921,340.000 305.584,340.000 305.474 C 340.000 305.364,339.100 304.521,338.000 303.600 C 336.900 302.679,336.000 302.016,336.000 302.126 M304.088 313.013 C 304.686 313.643,305.247 314.077,305.335 313.979 C 305.423 313.880,304.933 313.365,304.247 312.834 L 303.000 311.869 304.088 313.013 M310.841 313.834 C 310.093 314.365,309.678 314.800,309.919 314.800 C 310.159 314.800,310.860 314.356,311.478 313.813 C 312.891 312.569,312.608 312.579,310.841 313.834 " stroke="none" fill="#555555" fill-rule="evenodd"></path><path id="path4" d="" stroke="none" fill="#7c7c7c" fill-rule="evenodd"></path></g></svg>